<svg width="283" height="521" viewBox="0 0 283 521" fill="none" xmlns="http://www.w3.org/2000/svg">
<path d="M159.827 231.723C159.827 231.723 129.072 226.913 124.991 227.204C120.91 227.496 96.7141 235.366 95.6938 244.695C94.6735 254.169 99.3377 286.382 99.3377 286.382C99.3377 286.382 113.039 284.778 113.476 282.884C114.059 280.989 115.08 251.837 114.788 249.359C114.497 246.881 167.552 253.44 167.552 253.44L159.827 231.723Z" fill="#494F66"/>
<path d="M228.915 92.8151C227.749 103.893 219.295 113.95 208.946 122.55C194.37 134.793 174.547 143.976 157.785 148.203C157.056 148.349 156.327 148.495 155.744 148.64C155.599 148.64 155.453 148.64 155.307 148.786C155.161 148.786 155.016 148.786 154.87 148.932C154.578 148.932 154.287 149.078 153.995 149.078C150.934 150.973 135.63 155.928 126.447 158.843C114.641 154.325 104 148.057 94.3803 139.603C104 160.301 121.491 162.196 127.467 168.172C81.6994 164.528 66.249 115.699 66.249 89.6084L77.9097 74.0123L148.894 39.4677L157.785 62.9347C162.595 73.1378 200.784 77.9478 212.153 52.7316C212.007 52.5859 211.861 52.4401 211.861 52.2944C211.861 52.2944 212.007 52.4401 212.153 52.7316C212.298 52.8774 212.299 53.0231 212.444 53.0231C212.444 53.0231 212.298 52.8774 212.153 52.7316C214.631 59.728 213.756 67.1617 210.258 74.7411C217.983 71.6802 219.441 66.5786 220.607 62.9347C226 70.0768 230.227 78.8223 228.915 92.8151Z" fill="#2B2B31"/>
<path d="M228.915 92.8155C226.874 103.747 219.295 113.95 208.946 122.55C194.37 134.794 174.547 143.977 157.785 148.204C157.056 148.349 156.327 148.495 155.744 148.641C155.599 148.641 155.453 148.641 155.307 148.787C155.161 148.787 155.016 148.787 154.87 148.932C154.578 148.932 154.287 149.078 153.995 149.078C149.914 151.702 145.833 153.451 141.752 154.763C93.0685 133.19 85.9264 114.825 82.7197 96.7509L151.955 65.7045C162.449 72.4093 171.924 117.886 228.915 92.8155Z" fill="#191A1C"/>
<path d="M109.539 179.395C107.499 180.561 103.563 176.043 100.794 171.378C98.0244 166.714 97.587 162.05 99.6277 160.884C101.668 159.718 105.458 162.487 108.082 167.006C110.851 171.67 111.58 178.229 109.539 179.395Z" fill="#383064"/>
<path d="M100.94 177.793C107.207 171.817 131.112 160.885 131.112 160.885L128.196 155.346L117.265 151.848C117.265 151.848 95.4008 163.654 90.2993 170.068C82.8656 179.542 72.6625 215.253 72.6625 215.253L71.4965 218.896C66.3949 221.957 66.2492 228.662 66.2492 228.662C62.0222 234.493 63.7713 235.513 64.0629 235.659C64.6459 236.096 65.5204 235.367 66.1034 234.055C66.3949 233.326 68.7271 229.391 68.7271 229.391C67.4153 233.764 67.2695 239.011 68.7271 238.865C70.0389 238.72 70.1846 235.513 70.4761 234.347C70.6219 233.181 72.0795 230.12 72.0795 230.12C72.0795 230.12 71.9338 239.74 73.9744 239.448C76.015 239.011 74.5574 235.513 74.5574 235.513C73.9744 233.764 75.5777 230.411 75.5777 230.411C76.8895 236.679 78.0556 239.011 79.0759 238.72C79.9505 238.428 80.0962 236.096 78.6386 232.743C77.1811 229.391 79.3674 225.601 79.3674 226.039C79.2217 226.476 80.3877 230.557 82.7199 230.994C85.052 231.432 84.9062 228.954 84.3232 228.662C83.7401 228.371 82.4283 227.496 81.9911 225.31C81.5538 223.123 79.3674 221.229 79.3674 221.229L77.764 219.917C77.6183 219.771 92.7772 185.518 100.94 177.793Z" fill="#E5BCA5"/>
<path opacity="0.4" d="M117.413 151.847C117.413 151.847 95.5497 163.653 90.4482 170.067C83.0146 179.541 72.8115 215.252 72.8115 215.252L71.6455 218.896C66.544 221.957 66.3981 228.661 66.3981 228.661C62.1712 234.492 63.9203 235.512 64.2118 235.658C64.2118 235.658 64.6491 230.994 67.71 228.953C67.71 228.953 67.5642 221.228 72.9573 219.041C72.9573 219.041 74.5606 218.75 75.5809 219.187C75.5809 219.187 74.7064 217.73 73.1031 217.73C73.1031 217.73 84.9094 177.355 91.7601 171.233C91.7601 171.233 111.146 155.345 117.997 153.305L117.413 151.847Z" fill="#E5BCA5"/>
<path d="M204.283 130.858C206.178 136.834 205.886 142.081 203.7 142.81C201.513 143.539 198.015 139.312 196.12 133.482C194.225 127.505 194.517 122.258 196.703 121.529C198.89 120.801 202.388 125.028 204.283 130.858Z" fill="#383064"/>
<path d="M212.883 117.739C205.158 121.529 178.921 124.736 178.921 124.736L180.087 131.003L189.416 137.562C189.416 137.562 213.903 132.898 220.608 128.38C230.665 121.675 251.072 90.6284 251.072 90.6284L253.258 87.5675C258.943 86.1099 261.129 79.8423 261.129 79.8423C266.814 75.6153 265.502 74.1578 265.356 73.8663C264.919 73.429 263.898 73.7205 263.024 74.7408C262.441 75.3238 259.088 78.3847 259.088 78.3847C261.566 74.7408 263.315 69.6393 262.003 69.3478C260.692 69.0562 259.526 72.1172 258.943 73.1375C258.36 74.3035 256.027 76.6357 256.027 76.6357C256.027 76.6357 259.088 67.4529 257.048 67.3072C255.007 67.0156 255.299 70.8053 255.299 70.8053C255.299 72.5544 252.821 75.4696 252.821 75.4696C253.404 69.0562 252.966 66.4326 252.092 66.5784C251.072 66.5784 250.343 68.7647 250.634 72.4087C250.926 76.0526 247.719 78.9678 248.011 78.6763C248.302 78.3847 248.302 74.1578 246.262 72.9917C244.221 71.8256 243.638 74.3035 244.075 74.7408C244.513 75.1781 245.533 76.4899 245.241 78.6763C245.096 80.8626 246.553 83.3405 246.553 83.3405L247.573 85.0896C247.719 84.7981 222.94 112.929 212.883 117.739Z" fill="#E5BCA5"/>
<path opacity="0.4" d="M189.416 137.562C189.416 137.562 213.903 132.898 220.608 128.38C230.665 121.675 251.071 90.6283 251.071 90.6283L253.258 87.5673C258.942 86.1098 261.129 79.8422 261.129 79.8422C266.813 75.6152 265.501 74.1576 265.355 73.8661C265.355 73.8661 263.461 78.2388 259.962 79.2591C259.962 79.2591 257.776 86.6928 251.946 87.1301C251.946 87.1301 250.342 86.8385 249.468 86.1098C249.468 86.1098 249.905 87.7131 251.363 88.1504C251.363 88.1504 227.896 122.987 219.442 126.922C219.442 126.922 196.266 136.25 189.124 136.105L189.416 137.562Z" fill="#E5BCA5"/>
<path d="M138.691 38.3016C138.691 38.3016 156.474 70.2226 158.369 75.1783C170.029 104.476 146.562 123.57 140.149 126.922C134.173 129.983 107.207 143.393 82.137 112.784C76.4525 105.933 72.0798 85.6729 65.8122 69.6395C65.8122 69.6395 58.2328 50.9825 93.9435 34.5119C115.807 24.6003 131.258 26.3494 138.691 38.3016Z" fill="#E5BCA5"/>
<path d="M151.372 106.953C158.514 91.7946 153.996 75.3239 150.352 59.7278C144.813 49.5248 138.691 38.4472 138.691 38.4472C131.258 26.495 115.807 24.6001 93.9435 34.6574C58.2328 50.9823 65.8122 69.7851 65.8122 69.7851C72.0798 85.9643 76.4525 106.079 82.137 112.929C83.7404 114.97 85.3438 116.719 86.9471 118.323C111.289 128.963 137.234 134.502 151.372 106.953Z" fill="#E5BCA5"/>
<path opacity="0.4" d="M158.369 75.1783C157.64 73.1376 154.142 66.7243 150.352 59.7279C153.996 75.324 158.514 91.9404 151.372 106.953C137.234 134.502 111.289 128.963 86.9473 118.177C110.56 141.644 134.464 129.838 140.149 126.922C146.562 123.57 170.029 104.476 158.369 75.1783Z" fill="#E5BCA5"/>
<path d="M78.2031 86.1106C78.0573 86.9851 78.0573 87.714 78.2031 88.5885C78.3488 87.8597 78.4946 86.9851 78.2031 86.1106Z" fill="#E5BCA5"/>
<path d="M96.5676 79.6968C96.7134 79.2596 96.7134 78.968 96.8592 78.5308C96.4219 78.8223 96.4219 79.2596 96.5676 79.6968Z" fill="#E5BCA5"/>
<path d="M77.6191 87.859C77.4734 87.1302 77.4734 86.2557 77.6191 85.3811C77.9106 86.2557 77.9106 87.1302 77.6191 87.859C78.2022 91.2115 81.8461 93.6893 85.3443 91.9402C89.4255 88.8793 95.9846 78.0932 96.2761 77.8017C96.2761 78.239 96.1304 78.5305 95.9846 78.9678C96.2761 79.9881 97.588 81.0084 97.588 81.0084C113.913 83.1948 122.513 65.7038 131.112 53.7517C134.319 49.6704 138.254 47.3383 142.627 45.8807C140.004 41.0707 138.109 37.5725 138.109 37.5725C130.675 25.6204 115.225 23.7255 93.361 33.7828C57.6503 50.1077 65.2297 68.9105 65.2297 68.9105C67.9991 76.0526 70.3312 83.9235 72.6633 91.0657C74.8497 91.2114 77.0361 89.8997 77.6191 87.859Z" fill="#C78D75"/>
<path d="M112.894 110.889C112.894 110.889 132.571 108.557 138.401 96.4591C138.401 96.4591 149.625 118.031 130.967 122.696H130.822C127.032 122.55 120.181 122.55 112.894 110.889Z" fill="#71465A"/>
<path d="M127.762 122.695C130.094 115.262 136.945 114.97 140.297 115.407C138.84 119.78 135.342 123.424 127.762 122.695Z" fill="#D69487"/>
<path d="M140.879 98.2079C140.442 97.7706 140.151 97.4791 139.713 97.0418C139.276 96.7503 138.984 96.313 138.547 96.1673C138.11 95.8758 137.673 95.73 137.09 95.73C136.652 95.73 136.069 95.8758 135.486 96.0215C135.924 95.5842 136.361 95.2927 137.09 95.2927C137.673 95.2927 138.256 95.4385 138.839 95.73C139.713 96.1673 140.442 97.0418 140.879 98.2079Z" fill="#A56F68"/>
<path d="M138.401 96.4591C138.401 96.4591 140.005 99.6658 141.025 103.747C139.276 106.808 128.052 114.679 116.683 115.845C115.372 114.242 114.205 112.201 113.039 110.743C112.894 110.889 132.571 108.557 138.401 96.4591Z" fill="white"/>
<path d="M130.822 122.694C133.446 121.966 135.924 120.945 137.964 119.05C140.005 117.301 141.171 114.678 141.463 112.054C141.9 109.43 141.463 106.661 140.88 104.183C140.297 101.559 139.276 99.0815 138.11 96.7494H138.547C137.381 99.0815 135.778 101.122 133.883 102.871C131.988 104.62 129.802 105.932 127.47 107.098C125.138 108.264 122.806 109.139 120.328 109.868C117.85 110.596 115.372 111.034 112.894 111.471L113.04 111.179C113.914 112.783 115.08 114.386 116.246 115.698C117.413 117.156 118.87 118.467 120.328 119.633C121.785 120.799 123.534 121.674 125.284 122.257C127.033 122.549 128.927 122.84 130.822 122.694ZM130.822 122.694C128.927 122.84 127.033 122.694 125.284 122.111C123.534 121.528 121.785 120.654 120.328 119.488C118.87 118.322 117.413 117.01 116.101 115.698C114.789 114.24 113.769 112.783 112.748 111.179L112.603 111.034H112.894C115.372 110.596 117.85 110.013 120.182 109.285C122.514 108.556 124.992 107.681 127.178 106.515C129.365 105.349 131.551 104.037 133.446 102.434C135.341 100.831 136.944 98.7901 138.11 96.6037L138.402 96.1664L138.693 96.6037C139.859 99.0816 140.734 101.559 141.317 104.329C141.9 106.952 142.191 109.722 141.754 112.346C141.317 114.969 140.151 117.593 138.11 119.342C136.07 120.945 133.446 121.966 130.822 122.694Z" fill="#A56F68"/>
<g opacity="0.5">
<path opacity="0.5" d="M134.612 83.924C135.486 85.8189 139.422 85.9646 143.211 84.0698C147.001 82.1749 149.333 79.114 148.459 77.2191C147.584 75.3243 143.649 75.1785 139.859 77.0734C135.923 78.9682 133.591 82.0292 134.612 83.924Z" fill="#CC7A87"/>
<path opacity="0.5" d="M91.7581 103.893C92.1954 105.788 95.5478 106.516 99.046 105.642C102.69 104.767 105.168 102.581 104.731 100.686C104.293 98.7913 100.941 98.0624 97.4426 98.937C93.9444 99.8115 91.3209 101.998 91.7581 103.893Z" fill="#CC7A87"/>
</g>
<path d="M130.529 73.8664C131.549 75.4697 133.736 75.907 135.339 74.7409C136.943 73.7206 137.38 71.5343 136.214 69.9309C135.193 68.3276 133.007 67.8903 131.404 69.0564C129.946 70.0767 129.509 72.2631 130.529 73.8664Z" fill="#151617"/>
<path d="M131.112 71.826C131.549 72.409 132.278 72.5548 132.861 72.1175C133.444 71.6802 133.59 70.9514 133.153 70.3684C132.715 69.7854 131.987 69.6396 131.404 70.0769C130.821 70.6599 130.675 71.3887 131.112 71.826Z" fill="white"/>
<path d="M93.3609 93.1062C94.3812 94.7096 96.5676 95.1469 98.1709 93.9808C99.7743 92.9605 100.212 90.7741 99.0455 89.1708C98.0252 87.5675 95.8389 87.1302 94.2355 88.2962C92.6322 89.3166 92.1949 91.5029 93.3609 93.1062Z" fill="#151617"/>
<path d="M93.7986 91.0663C94.2359 91.6493 94.9647 91.7951 95.5477 91.3579C96.1308 90.9206 96.2766 90.1918 95.8393 89.6087C95.402 89.0257 94.6732 88.88 94.0902 89.3172C93.6529 89.7545 93.5071 90.4833 93.7986 91.0663Z" fill="white"/>
<path opacity="0.56" d="M108.084 80.1337C108.084 80.1337 117.121 85.2352 116.101 97.6246C116.101 97.6246 123.534 97.9162 126.304 91.6486C126.304 91.6486 118.87 84.0692 116.246 73.4288C116.246 73.5746 113.04 78.2388 108.084 80.1337Z" fill="url(#paint0_linear)"/>
<path d="M116.1 97.6248C116.1 97.6248 126.886 103.455 126.303 91.6487C126.303 91.7944 121.93 96.1672 116.1 97.6248Z" fill="#B88984"/>
<path d="M82.5745 90.9201C82.5745 90.9201 84.3236 81.4459 92.6318 79.1138C93.3606 78.968 93.3606 77.8019 92.486 77.8019C87.8218 77.2189 80.5339 78.385 82.5745 90.9201Z" fill="#2B2B31"/>
<path d="M142.335 59.582C142.335 59.582 133.881 55.2092 127.031 60.4565C126.302 60.8938 125.573 60.165 125.865 59.4362C128.488 55.355 133.59 50.545 142.335 59.582Z" fill="#2B2B31"/>
<path d="M124.117 59.4365C124.117 59.4365 111.145 79.1138 101.087 79.4053C95.4028 79.5511 98.1722 71.8259 98.1722 71.8259C98.1722 71.8259 87.3861 89.6084 82.8676 88.7338C77.3288 87.7135 78.0576 77.9478 81.8473 75.7614C81.8473 75.7614 73.2475 93.2524 67.563 89.3169C61.5869 85.2357 57.943 66.5787 62.17 61.7686C62.17 61.7686 75.1424 38.5931 76.4543 35.6779C79.2237 29.2646 103.711 19.0615 116.829 20.6649C124.7 21.5394 145.981 28.0985 124.117 59.4365Z" fill="#2B2B31"/>
<path d="M77.473 104.33C77.473 104.33 68.5817 96.0213 64.3547 99.811C60.1278 103.601 72.9544 120.654 79.0763 120.217C85.1981 119.78 83.449 113.221 83.449 113.221L77.473 104.33Z" fill="#C78D75"/>
<path d="M78.9289 117.302C78.3459 116.865 77.7628 116.428 77.1798 115.845C77.0341 115.699 76.8883 115.553 76.7426 115.407C76.5968 115.262 76.451 115.116 76.451 114.97C76.3053 114.824 76.3052 114.679 76.1595 114.387C76.1595 114.241 76.0138 113.95 76.0138 113.804C76.0138 113.658 75.868 113.367 76.0138 113.221C76.0138 113.075 76.0137 112.784 76.1595 112.638C76.3052 112.492 76.3053 112.201 76.451 112.055L76.7426 111.618C76.8883 111.472 77.0341 111.326 77.1798 111.326C77.3256 111.18 77.4713 111.18 77.6171 111.035L78.4916 110.597V111.18C77.3255 110.014 76.1595 108.703 74.9934 107.536C73.8274 106.37 72.5156 105.204 71.3495 104.038C70.7665 103.455 70.0377 103.018 69.4547 102.581C69.1631 102.435 68.7258 102.143 68.4343 101.998C68.1428 101.852 67.7055 101.852 67.5597 101.998C67.414 101.998 67.2683 102.289 67.2683 102.289C67.1225 102.435 67.1225 102.581 66.9768 102.726C66.831 103.018 66.8309 103.455 66.8309 103.892C66.9767 104.621 67.414 105.496 67.8513 106.225C67.2682 105.642 66.6853 104.913 66.5395 103.892C66.3937 103.455 66.3937 103.018 66.5395 102.581C66.5395 102.435 66.6852 102.143 66.8309 101.998C66.9767 101.852 66.9768 101.706 67.2683 101.56C67.7056 101.269 68.1428 101.269 68.5801 101.415C69.0173 101.56 69.3088 101.706 69.7461 101.852C70.4749 102.289 71.2037 102.726 71.7867 103.309C73.0986 104.33 74.4104 105.496 75.5764 106.808C76.7425 107.974 77.9086 109.286 79.0746 110.597L79.3662 111.035L78.9289 111.18L78.0543 111.472C77.9086 111.618 77.7628 111.618 77.6171 111.763C77.4713 111.909 77.3255 111.909 77.3255 112.055L77.034 112.346C76.8882 112.492 76.8883 112.638 76.7426 112.784C76.5968 112.929 76.5967 113.075 76.5967 113.221C76.5967 113.367 76.5967 113.512 76.5967 113.658C76.5967 113.804 76.7426 113.95 76.7426 114.096C76.7426 114.241 76.8883 114.387 76.8883 114.533C76.8883 114.679 77.0341 114.824 77.1798 114.97C77.3256 115.116 77.3256 115.262 77.4713 115.407C77.9086 116.282 78.4916 116.865 78.9289 117.302Z" fill="#AD8372"/>
<path d="M153.851 66.2874C153.851 66.2874 152.54 54.1895 158.078 53.0234C163.617 51.8574 169.447 72.4092 165.366 77.0735C161.285 81.7377 157.204 76.3447 157.204 76.3447L153.851 66.2874Z" fill="#E5BCA5"/>
<path d="M77.4734 104.33C77.4734 104.33 68.5822 96.0218 64.3552 99.8115C60.1282 103.601 72.9549 120.655 79.0768 120.218C85.1986 119.78 83.4495 113.221 83.4495 113.221L77.4734 104.33Z" fill="#C78D75"/>
<path d="M153.851 66.2874C153.851 66.2874 152.54 54.1895 158.078 53.0234C163.617 51.8574 169.447 72.4092 165.366 77.0735C161.285 81.7377 157.204 76.3447 157.204 76.3447L153.851 66.2874Z" fill="#C78D75"/>
<path d="M163.324 75.3243C163.324 74.5955 163.324 73.8667 163.178 73.1379C163.178 72.9922 163.178 72.7006 163.032 72.5549C163.032 72.4091 162.887 72.1176 162.887 71.9718C162.741 71.8261 162.741 71.5346 162.595 71.3888C162.449 71.243 162.449 71.0973 162.158 70.9515C162.012 70.8058 161.866 70.66 161.72 70.5143C161.575 70.3685 161.429 70.2228 161.137 70.2228C160.992 70.2228 160.7 70.077 160.554 70.077H159.971C159.826 70.077 159.68 70.2228 159.534 70.2228C159.388 70.2228 159.243 70.3685 159.097 70.3685L158.222 70.8058L158.805 71.0973C158.514 69.494 158.222 67.7449 158.077 66.1415C157.785 64.3924 157.639 62.7891 157.493 61.1857C157.493 60.3112 157.493 59.5824 157.493 58.7079C157.493 58.2706 157.493 57.9791 157.639 57.5418C157.785 57.2503 157.931 56.9588 158.222 56.813C158.368 56.813 158.514 56.813 158.659 56.813C158.805 56.813 158.951 56.813 159.097 56.813C159.388 56.9588 159.826 57.1045 160.117 57.396C160.7 57.9791 161.137 58.8536 161.283 59.5824C161.137 58.7079 160.846 57.8333 160.263 57.1045C159.971 56.813 159.534 56.5215 159.243 56.3757C159.097 56.23 158.805 56.23 158.659 56.23C158.514 56.23 158.368 56.23 158.077 56.23C157.639 56.3757 157.348 56.813 157.202 57.1045C157.056 57.5418 156.91 57.9791 156.91 58.2706C156.765 59.1451 156.765 60.0197 156.765 60.7485C156.765 62.4976 157.056 64.1009 157.202 65.85C157.493 67.5991 157.785 69.2024 158.077 70.9515L158.222 71.5346L158.659 71.2431L159.388 70.8058C159.534 70.8058 159.68 70.66 159.826 70.66C159.971 70.66 160.117 70.5143 160.263 70.5143H160.7C160.846 70.5143 160.992 70.5143 161.137 70.5143C161.283 70.5143 161.429 70.66 161.575 70.66C161.72 70.66 161.866 70.8058 162.012 70.9515C162.158 71.0973 162.303 71.243 162.303 71.3888C162.449 71.5346 162.449 71.6803 162.595 71.8261C162.741 71.9718 162.741 72.1176 162.887 72.2634C162.887 72.4091 163.032 72.5549 163.032 72.8464C163.178 73.8667 163.178 74.5955 163.324 75.3243Z" fill="#AD8372"/>
<path d="M231.541 228.078C230.229 226.038 228.334 223.997 226.439 221.956C222.795 218.312 218.568 215.106 216.673 213.502C212.155 210.004 206.47 205.777 200.203 201.842C207.928 201.55 214.487 200.821 218.86 199.801C222.649 198.927 223.961 197.761 224.107 196.157C227.605 201.696 229.937 206.943 231.249 212.045C232.561 217.875 232.561 223.268 231.541 228.078Z" fill="#494F66"/>
<path d="M231.541 228.078C229.354 237.261 223.378 245.569 214.05 249.359C203.264 253.732 200.932 254.023 195.684 255.626C183.587 259.416 167.262 252.274 162.014 250.379L160.848 236.386L160.411 229.973L158.225 202.133C172.8 202.279 187.959 202.279 200.057 201.696C206.325 205.631 212.155 209.858 216.528 213.357C219.589 215.98 227.605 222.102 231.541 228.078Z" fill="#494F66"/>
<path d="M156.038 196.303C155.892 196.449 155.892 196.449 156.038 196.303C155.892 196.303 155.892 196.303 156.038 196.303C156.184 196.303 156.184 196.303 156.184 196.303C155.892 196.303 155.892 196.303 156.184 196.303C156.621 196.303 155.892 196.157 156.329 196.303C156.475 196.303 156.475 196.303 156.329 196.303C156.475 196.303 156.475 196.449 156.621 196.449C157.496 197.032 158.807 196.595 159.245 195.72C159.682 194.7 159.39 193.679 158.516 193.096C156.912 191.93 154.872 192.368 153.414 193.534C152.685 194.117 152.685 195.574 153.414 196.157C154.289 197.032 155.163 196.886 156.038 196.303Z" fill="#090909"/>
<path d="M227.458 202.133C223.814 191.347 198.161 158.115 187.521 149.515L192.913 147.62L200.93 143.539C196.12 140.041 192.33 128.234 193.934 122.112C172.799 125.902 157.349 126.631 149.186 130.275C149.186 130.275 149.478 130.566 149.915 130.858C148.895 131.004 148.166 131.149 147.437 131.295C146.271 131.587 140.149 134.21 136.359 135.814C135.922 135.231 135.776 134.939 135.776 134.939C108.811 154.179 135.339 135.231 99.9199 160.592C105.167 163.799 111.726 176.334 110.123 178.812L130.092 167.735C132.57 168.172 135.048 169.046 137.234 170.795C144.085 176.334 170.321 229.973 170.321 229.973C174.111 231.431 193.934 225.163 222.94 207.381C224.252 206.506 225.709 205.632 227.021 204.757C228.041 204.32 227.75 203.154 227.458 202.133Z" fill="#82C162"/>
<path d="M207.053 205.195C217.985 186.683 196.121 158.26 174.258 149.515C180.817 147.329 191.749 149.515 191.749 144.122C192.769 137.271 189.416 129.692 191.02 122.696C171.488 126.048 157.058 126.777 149.333 130.421C149.333 130.421 149.625 130.712 150.062 131.004C149.042 131.149 148.313 131.295 147.584 131.441C146.418 131.733 140.296 134.356 136.506 135.96C136.069 135.377 135.923 135.085 135.923 135.085C108.958 154.325 135.486 135.377 100.067 160.738C105.314 163.945 111.873 176.48 110.27 178.958L130.093 167.735C132.571 168.172 135.049 169.047 137.235 170.796C140.733 173.565 149.187 188.724 156.621 202.862C176.153 211.899 195.538 224.872 207.053 205.195Z" fill="#92D66F"/>
<path d="M144.232 124.298L150.5 131.295C150.5 131.295 155.747 141.935 152.249 144.705C148.897 147.62 147.147 151.701 141.026 149.515C135.049 147.182 131.26 142.518 131.26 139.749C131.406 136.834 131.843 134.064 131.843 134.064C131.843 134.064 140.297 131.732 142.337 128.963C144.524 126.048 144.232 124.298 144.232 124.298Z" fill="#C08D75"/>
<path opacity="0.4" d="M142.629 138.583C146.419 138.146 149.188 135.959 151.229 133.044C150.791 131.878 150.354 131.149 150.354 131.149L144.086 124.153C144.086 124.153 144.524 125.902 142.337 128.672C140.151 131.441 131.843 133.773 131.843 133.773C131.843 133.773 131.406 136.688 131.26 139.458C131.26 139.603 131.26 139.749 131.26 139.895C134.904 140.624 138.985 139.749 142.629 138.583Z" fill="#C08D75"/>
<path d="M142.628 138.583C138.984 139.749 134.902 140.624 131.404 140.041C131.696 142.956 135.34 147.329 141.024 149.515C147 151.847 148.895 147.62 152.248 144.705C154.726 142.519 152.539 136.251 151.227 133.19C149.187 135.959 146.417 138.146 142.628 138.583Z" fill="#C08D75"/>
<path d="M142.921 22.1224L155.456 45.4437C153.707 42.8201 149.334 42.0913 143.504 42.9658C140.297 43.4031 136.653 44.2776 132.718 45.5895C104.587 54.6265 61.5881 82.3205 62.8999 98.3539L58.0898 89.4626L49.9274 74.158C37.8295 51.7113 50.6562 20.5191 73.5402 7.69239C76.1638 6.23481 78.9333 4.923 81.8484 3.90269C88.5533 1.57057 95.8412 0.404484 102.983 0.696C119.6 1.13327 135.487 8.27543 142.921 22.1224Z" fill="#FAFAFC"/>
<path d="M51.9683 29.8478C44.3889 43.8405 42.6398 60.457 49.782 74.1582L57.9444 89.4628L62.7544 98.354C62.6086 97.0422 62.9002 95.5846 63.3374 93.9813C48.4701 76.1988 44.5347 51.7115 51.9683 29.8478Z" fill="#FAFAFC"/>
<path d="M101.089 8.71289C91.032 6.235 80.9748 6.9638 70.9175 9.29593C63.0465 14.3975 56.4874 21.6853 51.9689 29.8478C44.3895 51.5657 48.4707 76.0531 63.4838 93.9813C68.8768 77.6564 107.065 53.8979 132.719 45.5897C135.78 44.5694 138.695 43.8406 141.319 43.2575C133.01 26.7869 121.641 12.6484 101.089 8.71289Z" fill="#FAFAFC"/>
<path d="M107.062 22.8509C107.062 24.4542 105.75 25.766 104.147 25.9118C102.543 25.9118 101.231 24.7458 101.231 23.1424C101.231 21.5391 102.543 20.2272 104.147 20.0815C105.75 19.9357 107.062 21.1018 107.062 22.8509Z" fill="#222222"/>
<path d="M104.147 26.3492C103.273 26.3492 102.544 26.0576 101.815 25.4746C101.232 24.8916 100.795 24.017 100.795 23.1425C100.795 21.2476 102.252 19.6443 104.147 19.6443C105.022 19.6443 105.896 19.9358 106.479 20.5188C107.062 21.1019 107.5 21.9764 107.5 22.851C107.5 24.6001 106.042 26.2034 104.147 26.3492ZM104.293 20.3731C104.147 20.3731 104.147 20.3731 104.293 20.3731C102.835 20.3731 101.815 21.5392 101.815 22.851C101.815 23.5798 102.107 24.1628 102.544 24.6001C102.981 25.0373 103.564 25.3289 104.293 25.1831C105.605 25.1831 106.771 24.017 106.771 22.7052C106.771 21.9764 106.479 21.3934 106.042 20.9561C105.459 20.6646 104.876 20.3731 104.293 20.3731Z" fill="#222222"/>
<path d="M114.932 34.2193C114.932 35.8227 113.621 37.1345 112.017 37.2802C110.414 37.2802 109.102 36.1142 109.102 34.5109C109.102 32.9075 110.414 31.5957 112.017 31.4499C113.621 31.3042 114.932 32.616 114.932 34.2193Z" fill="#222222"/>
<path d="M111.871 37.7185C110.997 37.7185 110.268 37.427 109.539 36.844C108.956 36.261 108.519 35.3864 108.519 34.5119C108.519 32.617 109.977 31.0137 111.871 31.0137C112.746 31.0137 113.621 31.3052 114.204 31.8882C114.787 32.4713 115.224 33.3458 115.224 34.2203C115.37 36.1152 113.912 37.7185 111.871 37.7185C112.017 37.7185 112.017 37.7185 111.871 37.7185ZM112.017 31.8882C110.56 31.8882 109.539 33.0543 109.539 34.3661C109.539 35.0949 109.831 35.6779 110.268 36.1152C110.705 36.5525 111.288 36.844 112.017 36.6982C113.329 36.6982 114.495 35.5322 114.495 34.2203C114.495 33.4916 114.204 32.9085 113.766 32.4713C113.183 32.1797 112.6 31.8882 112.017 31.8882Z" fill="#222222"/>
<path d="M91.0325 31.013C91.0325 32.6164 89.7206 33.9282 88.1173 34.0739C86.514 34.0739 85.2021 32.9079 85.2021 31.3045C85.2021 29.7012 86.514 28.3894 88.1173 28.2436C89.7206 28.0979 91.0325 29.4097 91.0325 31.013Z" fill="#222222"/>
<path d="M88.1161 34.5119C87.2415 34.5119 86.5127 34.2204 85.7839 33.6373C85.2009 33.0543 84.7637 32.1797 84.7637 31.3052C84.7637 29.4103 86.2212 27.807 88.1161 27.807C88.9906 27.807 89.8651 28.0985 90.4482 28.6816C91.0312 29.2646 91.4685 30.1391 91.4685 31.0137C91.6143 32.9085 90.0109 34.5119 88.1161 34.5119ZM88.2618 28.6816C88.2618 28.6816 88.1161 28.6816 88.2618 28.6816C86.8042 28.6816 85.7839 29.8476 85.7839 31.1594C85.7839 31.8882 86.0754 32.4713 86.5127 32.9085C86.95 33.3458 87.533 33.6373 88.2618 33.4916C89.5736 33.4916 90.7397 32.3255 90.7397 31.0137C90.7397 30.2849 90.4482 29.7019 90.0109 29.2646C89.4279 28.9731 88.8448 28.6816 88.2618 28.6816Z" fill="#222222"/>
<path d="M98.9011 42.5274C98.9011 44.1308 97.5893 45.4426 95.986 45.5883C94.3826 45.5883 93.0708 44.4223 93.0708 42.819C93.0708 41.2156 94.3826 39.9038 95.986 39.758C97.5893 39.6123 98.9011 40.9241 98.9011 42.5274Z" fill="#222222"/>
<path d="M95.8402 46.0264C94.9657 46.0264 94.2369 45.7349 93.5081 45.1519C92.9251 44.5688 92.4878 43.6943 92.4878 42.8197C92.4878 40.9249 93.9454 39.3215 95.8402 39.3215C96.7148 39.3215 97.5893 39.6131 98.1723 40.1961C98.7553 40.7791 99.1926 41.6537 99.1926 42.5282C99.3384 44.4231 97.8808 46.0264 95.8402 46.0264C95.986 46.0264 95.986 46.0264 95.8402 46.0264ZM95.9859 40.1961C94.5284 40.1961 93.5081 41.3621 93.5081 42.674C93.5081 43.4028 93.7996 43.9858 94.2369 44.4231C94.6742 44.8603 95.2571 45.1519 95.9859 45.0061C97.2978 45.0061 98.4638 43.84 98.4638 42.5282C98.4638 41.7994 98.1723 41.2164 97.735 40.7791C97.152 40.3418 96.569 40.1961 95.9859 40.1961Z" fill="#222222"/>
<path d="M74.9973 41.2164C74.9973 42.8198 73.6855 44.1316 72.0822 44.2773C70.4788 44.2773 69.167 43.1113 69.167 41.5079C69.167 39.9046 70.4788 38.5928 72.0822 38.447C73.6855 38.447 74.9973 39.6131 74.9973 41.2164Z" fill="#222222"/>
<path d="M72.0809 44.7148C71.2064 44.7148 70.4775 44.4232 69.7488 43.8402C69.1657 43.2572 68.7285 42.3826 68.7285 41.5081C68.7285 39.6132 70.1861 38.0099 72.0809 38.0099C72.9555 38.0099 73.83 38.3014 74.413 38.8844C74.9961 39.4675 75.4333 40.342 75.4333 41.2166C75.5791 43.1114 73.9758 44.7148 72.0809 44.7148C72.2267 44.7148 72.0809 44.7148 72.0809 44.7148ZM72.2267 38.8844C70.7691 38.8844 69.7488 40.0505 69.7488 41.3623C69.7488 42.0911 70.0403 42.6741 70.4775 43.1114C70.9148 43.5487 71.4979 43.8402 72.2267 43.6944C73.5385 43.6944 74.7046 42.5284 74.7046 41.2166C74.7046 40.4878 74.413 39.9047 73.9758 39.4675C73.3927 39.176 72.8097 38.8844 72.2267 38.8844Z" fill="#222222"/>
<path d="M82.8679 52.7308C82.8679 54.3342 81.5561 55.646 79.9528 55.7917C78.3494 55.7917 77.0376 54.6257 77.0376 53.0223C77.0376 51.419 78.3494 50.1072 79.9528 49.9614C81.5561 49.8156 82.8679 51.1275 82.8679 52.7308Z" fill="#222222"/>
<path d="M79.9515 56.2295C79.077 56.2295 78.3482 55.938 77.6194 55.355C77.0364 54.7719 76.5991 53.8974 76.5991 53.0229C76.5991 51.128 78.0567 49.5247 79.9515 49.5247C80.8261 49.5247 81.7007 49.8162 82.2837 50.3992C82.8668 50.9822 83.304 51.8568 83.304 52.7314C83.304 54.6262 81.8464 56.2295 79.9515 56.2295ZM80.0973 50.3992C79.9516 50.3992 79.9516 50.3992 80.0973 50.3992C78.6398 50.3992 77.6194 51.5653 77.6194 52.8771C77.6194 53.6059 77.911 54.1889 78.3482 54.6262C78.7855 55.0635 79.3686 55.355 80.0973 55.2092C81.4092 55.2092 82.5753 54.0432 82.5753 52.7314C82.5753 52.0026 82.2837 51.4195 81.8465 50.9822C81.2634 50.545 80.6804 50.3992 80.0973 50.3992Z" fill="#222222"/>
<path d="M149.33 47.1917L148.894 46.4637C149.185 46.6093 149.33 46.9005 149.33 47.1917Z" fill="#344E94"/>
<path d="M123.532 134.21C97.5876 134.21 76.3069 115.116 64.5005 95.7301C64.0632 95.0013 64.209 93.8353 65.0836 93.398C65.8123 92.9607 66.3953 91.6489 66.8326 92.5234C80.6796 115.262 108.957 139.166 141.169 127.651C142.044 127.36 143.064 127.797 143.356 128.671C143.647 129.546 143.21 130.566 142.335 130.858C135.776 133.19 129.509 134.21 123.532 134.21Z" fill="#585857"/>
<path d="M137.672 131.587C137.089 131.587 136.506 131.295 136.215 130.858C135.777 130.129 135.923 128.963 136.652 128.526C166.678 109.14 160.265 75.7613 149.624 51.1282C149.187 50.2536 146.564 45.5893 147.438 45.1521C148.313 44.7148 151.519 45.8809 151.957 46.7554C158.807 62.3515 162.597 79.6967 161.868 92.2319C160.848 108.848 152.977 121.967 138.693 131.295C138.401 131.441 138.11 131.587 137.672 131.587Z" fill="#585857"/>
<path d="M156.329 42.2372C155.163 39.3221 152.394 37.7187 148.021 37.2815C143.794 36.8442 138.109 37.573 131.113 39.6136H130.967C128.635 40.3424 126.157 41.2169 123.534 42.0915C120.181 43.4033 116.683 44.8609 113.185 46.4642C101.087 52.003 88.5517 59.2909 78.6401 66.5788C72.664 70.9516 66.3964 76.0531 62.4609 81.3004C58.9627 85.8189 57.2137 90.4831 58.6713 95.0016C59.5458 97.6253 62.7525 98.3541 63.7728 98.0626C63.7728 98.0626 63.9186 98.0626 64.0643 98.0626C64.5016 98.0626 64.7931 97.9168 65.2304 97.4795C65.6676 92.2322 71.0607 84.9443 84.6162 75.0328C94.382 67.8906 106.626 60.7485 118.432 55.3554C121.639 53.8979 124.845 52.586 127.906 51.42C130.967 50.2539 133.591 49.3794 136.069 48.6506H136.215C144.814 46.1727 147.584 45.5897 149.478 46.61C151.956 46.61 152.977 46.61 154.726 47.0472C155.017 46.7557 155.746 46.4642 156.183 45.7354C156.912 44.4236 156.766 43.2575 156.329 42.2372Z" fill="#F55D68"/>
<path d="M131.258 39.613H131.112C128.78 40.3418 126.302 41.2163 123.679 42.0909C120.326 43.4027 116.828 44.8603 113.33 46.4636C101.232 52.0024 88.6967 59.2903 78.7851 66.5782C72.8091 70.951 66.5415 76.0525 62.606 81.2998C59.1078 85.8183 57.3587 90.4826 58.8163 95.0011C59.6908 97.6247 62.8975 98.3535 63.9178 98.062C63.9178 98.062 64.0636 98.062 64.2093 98.062C64.6466 98.062 64.9381 97.9162 65.3754 97.4789C65.8127 92.2316 71.2058 84.9437 84.7613 75.0322C94.527 67.89 106.771 60.7479 118.577 55.3549C121.784 53.8973 124.99 52.5855 128.051 51.4194C131.112 50.2533 133.736 49.3788 136.214 48.65H136.36C139.42 47.7755 141.898 47.1924 143.647 46.7551C142.481 43.6942 141.17 40.4875 139.421 37.5724C136.797 38.0097 134.173 38.7385 131.258 39.613Z" fill="#FF888D"/>
<path opacity="0.6" d="M156.328 42.2371C155.162 39.322 152.392 37.7187 148.02 37.2814C145.542 36.9899 142.481 37.1356 139.128 37.7187C140.878 40.6338 142.189 43.6947 143.355 46.9014C146.562 46.1726 148.165 46.1726 149.331 46.9014C151.809 46.9014 152.83 46.9014 154.579 47.3387C154.87 47.0472 155.599 46.7556 156.036 46.0269C156.911 44.4235 156.765 43.2574 156.328 42.2371Z" fill="#F55D68"/>
<path d="M112.894 177.5L110.27 178.958C110.999 176.043 105.897 164.965 100.067 160.738L102.691 158.843C108.958 163.362 113.622 173.419 112.894 177.5Z" fill="white"/>
<path d="M204.138 142.81L200.64 144.122C199.474 143.684 198.162 142.081 196.85 139.749C194.372 135.085 192.332 127.943 193.644 122.258L196.85 121.529C195.684 126.339 197.433 133.336 200.057 138.146C201.369 140.186 202.681 141.935 204.138 142.81Z" fill="white"/>
<path d="M128.051 135.23C125.719 135.23 123.678 133.481 123.387 131.149C123.095 128.526 124.844 126.193 127.468 125.902C135.193 124.882 140.44 122.112 143.355 117.156C144.667 114.97 147.582 114.241 149.769 115.553C151.955 116.865 152.684 119.78 151.372 121.966C146.854 129.4 139.129 133.919 128.488 135.23C128.342 135.23 128.197 135.23 128.051 135.23Z" fill="#444442"/>
<g opacity="0.35">
<path opacity="0.35" d="M123.387 229.682C125.136 235.366 123.533 239.156 119.014 244.258C117.994 245.424 117.411 249.651 116.099 250.962C115.079 251.983 111.435 249.068 110.123 250.088C105.021 254.169 95.9844 250.088 95.1099 247.61C98.6081 238.573 96.2759 240.322 102.106 233.18L123.387 229.682Z" fill="#351853"/>
</g>
<path d="M117.701 255.189C116.827 255.189 116.098 254.606 115.952 253.732C115.515 250.962 112.162 248.047 109.102 246.735C107.061 245.861 105.895 245.861 105.749 246.006C105.02 246.589 103.854 246.444 103.271 245.569C102.688 244.84 102.834 243.674 103.709 243.091C105.166 242.071 107.498 242.071 110.268 243.237C114.203 244.84 118.867 248.63 119.45 253.003C119.596 254.023 118.867 254.898 117.993 255.043C117.847 255.189 117.701 255.189 117.701 255.189Z" fill="#222222"/>
<path d="M119.158 253.731C119.013 253.731 118.721 253.731 118.575 253.585C117.701 253.294 117.118 252.274 117.555 251.253C118.284 249.067 117.992 244.84 116.389 242.945C115.806 242.071 115.077 241.779 114.057 241.925C113.037 242.071 112.162 241.342 112.162 240.321C112.016 239.301 112.745 238.427 113.765 238.427C115.952 238.281 117.847 239.01 119.304 240.759C121.636 243.82 122.074 249.359 120.908 252.419C120.47 253.148 119.887 253.731 119.158 253.731Z" fill="#222222"/>
<path d="M101.814 250.379C100.794 250.379 99.9193 250.233 99.0448 250.088C96.7127 249.505 94.8178 248.339 93.7974 246.589C92.1941 243.966 94.672 240.322 95.4008 239.302C95.9839 238.573 97.0041 238.427 97.7329 239.01C98.4617 239.593 98.6075 240.613 98.0245 241.342C96.7126 243.091 96.4211 244.549 96.5669 244.84C97.1499 245.861 98.316 246.589 99.7736 246.881C103.272 247.61 108.082 246.298 112.309 243.529C118.722 239.302 122.075 233.18 119.888 229.682C119.305 228.661 116.973 228.224 114.787 228.953C113.912 229.244 113.038 228.661 112.746 227.787C112.454 226.912 113.038 226.038 113.912 225.746C117.702 224.726 121.346 225.6 122.803 227.932C126.01 233.034 122.366 241.051 114.204 246.298C109.977 248.922 105.604 250.379 101.814 250.379Z" fill="#222222"/>
<path d="M112.748 243.383C106.043 247.756 98.7554 249.068 95.8402 244.549C95.1115 243.529 94.8199 242.217 94.8199 240.905C94.6742 236.678 97.7351 231.577 102.837 228.078C107.647 224.872 113.04 224.143 116.684 225.601C118.141 226.184 119.307 227.204 120.182 228.516C122.951 233.18 119.453 239.01 112.748 243.383Z" fill="#2F3438"/>
<path d="M110.121 240.614C105.311 243.82 97.2946 244.986 94.671 240.905C94.5252 236.678 97.5862 231.577 102.688 228.079C107.498 224.872 112.891 224.143 116.535 225.601C122.073 229.245 115.223 237.261 110.121 240.614Z" fill="#3B434A"/>
<path d="M101.96 232.889C101.668 232.889 101.523 232.743 101.377 232.597C101.085 232.306 101.085 231.723 101.377 231.431C101.814 230.994 102.251 230.702 102.689 230.411C103.126 230.119 103.563 230.265 103.855 230.557C104.146 230.994 104.001 231.431 103.709 231.723C103.272 232.014 102.98 232.306 102.543 232.743C102.397 232.743 102.251 232.889 101.96 232.889Z" fill="white"/>
<path d="M106.77 229.828C106.478 229.828 106.187 229.682 106.041 229.391C105.895 228.954 106.041 228.516 106.478 228.225C108.227 227.496 109.976 227.059 111.58 227.059C112.017 227.059 112.454 227.35 112.454 227.933C112.454 228.371 112.163 228.808 111.58 228.808C110.122 228.808 108.665 229.245 107.207 229.828C106.916 229.828 106.916 229.828 106.77 229.828Z" fill="white"/>
<path d="M155.308 136.251C153.996 131.295 147.728 128.38 149.623 130.129C150.643 131.15 151.518 134.939 151.955 137.272C152.684 141.353 150.643 145.725 145.979 147.183C141.461 148.641 136.213 146.6 134.318 142.81C133.007 140.187 131.403 137.709 131.257 138.146C130.966 138.729 131.112 141.644 131.841 143.831C133.444 148.349 137.817 151.264 142.772 151.264C144.084 151.264 145.542 151.119 146.854 150.536C153.558 148.495 156.765 142.227 155.308 136.251Z" fill="white"/>
<path d="M220.607 216.418C220.607 216.418 215.214 219.041 211.715 218.458C196.848 216.126 171.924 193.534 158.805 194.554C149.768 195.283 140.44 208.255 142.772 221.228C145.104 234.2 158.368 266.558 158.368 266.558C158.368 266.558 171.195 264.226 173.09 263.498C174.984 262.769 161.283 212.92 163.324 215.689C166.093 223.414 192.475 240.322 209.092 240.614C225.708 240.905 220.607 216.418 220.607 216.418Z" fill="#494F66"/>
<path d="M220.607 216.418C220.607 216.418 215.214 219.041 211.715 218.458C196.848 216.126 171.924 193.534 158.805 194.554C149.768 195.283 140.44 208.255 142.772 221.228C145.25 234.2 158.368 266.558 158.368 266.558C158.368 266.558 167.405 264.955 171.341 264.081C167.259 247.61 158.222 231.868 160.992 215.106C161.575 217.001 162.595 218.458 163.615 219.77C163.032 216.855 162.741 215.106 163.178 215.689C163.47 216.418 163.907 217.147 164.49 218.021C164.053 216.272 163.907 214.377 163.178 212.92C178.045 225.309 198.743 238.427 218.275 236.387C223.376 229.244 220.607 216.418 220.607 216.418Z" fill="#494F66"/>
<path d="M159.391 195.72C163.472 199.947 163.618 204.174 161.869 210.733C161.432 212.191 165.659 219.479 165.076 221.082C164.639 222.394 157.205 218.313 156.476 219.77C153.707 225.601 145.69 227.058 143.649 225.163C142.775 215.543 139.714 217.147 141.609 208.255L159.391 195.72Z" fill="#718D9F"/>
<path d="M164.635 221.228C164.052 221.228 163.469 220.936 163.178 220.499C161.574 218.167 157.202 217.147 153.995 217.292C151.809 217.438 150.788 218.021 150.642 218.167C150.205 219.041 149.039 219.333 148.165 218.896C147.29 218.458 146.998 217.292 147.436 216.418C148.31 214.814 150.351 213.794 153.412 213.648C157.639 213.357 163.469 214.669 166.093 218.313C166.676 219.187 166.53 220.208 165.656 220.791C165.364 221.082 165.072 221.228 164.635 221.228Z" fill="#222222"/>
<path d="M165.362 219.186C164.487 219.186 163.759 218.457 163.613 217.583C163.321 215.251 161.135 211.753 158.949 210.586C158.074 210.149 157.199 210.149 156.471 210.732C155.596 211.315 154.576 211.024 153.993 210.149C153.41 209.275 153.701 208.254 154.576 207.671C156.471 206.505 158.511 206.36 160.552 207.38C164.05 208.983 166.819 213.793 167.257 217.146C167.402 218.166 166.674 219.04 165.653 219.186C165.508 219.186 165.362 219.186 165.362 219.186Z" fill="#222222"/>
<path d="M144.084 225.163C142.626 225.163 141.314 224.726 140.148 224.143C137.524 222.539 138.108 218.167 138.399 216.855C138.545 215.98 139.419 215.397 140.294 215.543C141.168 215.689 141.751 216.563 141.606 217.438C141.168 219.478 141.606 221.082 141.751 221.227C142.772 221.811 144.084 221.956 145.541 221.665C148.894 220.79 152.683 217.438 155.307 213.065C159.097 206.506 159.388 199.364 155.89 197.323C154.87 196.74 152.683 197.323 150.934 198.926C150.205 199.51 149.185 199.51 148.602 198.781C148.019 198.052 148.019 197.032 148.748 196.449C151.663 193.825 155.307 192.95 157.639 194.554C162.886 197.76 163.032 206.506 158.076 214.96C155.015 220.207 150.497 224.143 146.27 225.163C145.687 225.017 144.812 225.163 144.084 225.163Z" fill="#222222"/>
<path d="M155.746 212.628C151.665 219.624 145.689 223.997 141.17 221.228C140.15 220.499 139.276 219.624 138.547 218.458C136.506 214.669 136.943 208.838 140.004 203.445C142.92 198.49 147.292 195.429 151.373 194.991C152.977 194.846 154.434 195.137 155.746 196.012C160.41 198.927 159.827 205.777 155.746 212.628Z" fill="#2F3438"/>
<path d="M152.246 211.316C149.331 216.272 142.772 220.936 138.691 218.458C136.65 214.669 137.087 208.838 140.148 203.445C143.064 198.49 147.436 195.429 151.517 194.991C157.785 195.72 155.307 206.069 152.246 211.316Z" fill="#3B434A"/>
<path d="M141.17 208.11C141.024 208.11 141.024 208.11 140.879 208.11C140.441 207.964 140.296 207.527 140.441 207.089C140.587 206.506 140.879 206.069 141.17 205.632C141.316 205.194 141.899 205.049 142.336 205.194C142.774 205.34 142.919 205.923 142.774 206.36C142.482 206.798 142.336 207.235 142.19 207.672C141.753 207.964 141.462 208.11 141.17 208.11Z" fill="white"/>
<path d="M144.082 203.299C143.937 203.299 143.645 203.299 143.5 203.153C143.208 202.861 143.062 202.278 143.354 201.987C144.52 200.529 145.977 199.509 147.289 198.634C147.726 198.489 148.164 198.634 148.455 198.926C148.747 199.363 148.455 199.801 148.164 200.092C146.998 200.821 145.686 201.695 144.666 203.007C144.52 203.153 144.228 203.299 144.082 203.299Z" fill="white"/>
<path d="M95.1107 321.218C98.6089 319.906 102.107 318.448 105.751 317.282C107.354 316.699 108.958 316.116 110.561 315.679C111.873 315.242 114.934 313.638 116.1 314.95C117.703 316.699 120.327 313.93 118.578 312.181C115.808 309.266 111.436 311.452 108.229 312.472C103.419 314.076 98.4631 315.825 93.7989 317.72C91.6125 318.594 92.9244 322.092 95.1107 321.218Z" fill="#090909"/>
<path d="M93.5078 280.989C101.816 277.636 114.06 279.677 117.995 281.135L119.89 288.131L95.2568 290.755L93.5078 280.989Z" fill="#AAB3C6"/>
<path d="M104.806 303.853C107.568 303.299 109.051 299.075 108.118 294.418C107.184 289.762 104.188 286.435 101.426 286.989C98.6633 287.543 97.1804 291.766 98.1137 296.423C99.0469 301.08 102.043 304.407 104.806 303.853Z" fill="#7A2250"/>
<path d="M99.922 307.08C99.0475 306.788 90.302 304.893 82.2853 303.436C79.3702 302.999 78.2041 302.561 77.9126 302.416C78.3499 302.416 78.7871 302.27 79.2244 302.27C84.7632 301.978 95.112 303.582 95.9865 303.436C100.797 302.853 85.9293 283.904 93.946 281.718C94.3832 281.572 101.963 280.843 102.837 284.779C104.441 293.67 115.955 311.161 99.922 307.08Z" fill="#EF3340"/>
<path d="M128.197 325.591C128.051 326.611 127.759 327.632 127.322 328.361C126.739 329.527 125.865 330.401 124.844 330.838C120.909 332.442 88.1133 328.944 76.3069 325.154C74.4121 324.571 72.9545 323.988 72.3715 323.259C71.6427 322.53 70.9139 321.656 70.3309 320.635C70.1851 320.49 70.1851 320.344 70.0393 320.198C69.8936 319.907 69.7479 319.469 69.4564 319.032C69.4564 318.886 69.3105 318.74 69.3105 318.449C70.1851 319.032 71.3511 319.615 72.663 320.198C75.4324 315.825 79.6594 309.266 80.9712 307.954C92.9233 311.744 112.018 313.785 115.953 312.181C117.119 311.744 117.848 310.87 118.431 309.703C118.868 308.975 119.16 307.954 119.306 306.934C120.472 301.25 118.723 291.921 116.536 283.613C117.994 283.904 119.16 284.342 119.451 284.779C120.909 286.674 130.529 313.639 128.197 325.591Z" fill="#E5ACCE"/>
<path d="M128.196 325.445C128.05 326.465 127.759 327.485 127.322 328.214C126.738 329.38 125.864 330.255 124.844 330.692C120.908 332.295 88.1126 328.797 76.3062 325.007C76.0147 324.57 75.7232 324.279 75.5774 323.841C75.4317 323.696 75.4318 323.55 75.286 323.404C75.1402 323.113 74.9944 322.675 74.7029 322.238C74.5572 321.801 74.7029 321.218 74.2657 320.926C73.6826 320.635 73.0996 320.489 72.6623 320.197C71.3505 319.614 70.3302 319.031 69.3099 318.448C69.1641 318.157 69.1641 318.011 69.0183 317.72C67.1235 311.743 69.1641 304.164 77.6181 302.415C77.7638 302.415 77.9096 302.415 78.0553 302.415C78.3469 302.706 79.5129 302.998 82.4281 303.435C90.4448 304.747 99.1903 306.788 100.065 307.079C106.478 308.683 104.583 296.876 102.834 287.693C102.397 285.361 104.146 283.175 106.478 283.029C110.268 282.883 114.058 283.175 116.535 283.612C117.993 283.904 119.159 284.341 119.451 284.778C120.908 286.673 130.528 313.638 128.196 325.445Z" fill="#7A2250"/>
<path d="M119.16 307.08C119.015 308.1 118.723 309.12 118.286 309.849C117.703 311.015 116.828 311.89 115.808 312.327C111.872 313.93 93.6526 312.764 81.7005 308.975C80.3887 310.286 75.2872 315.971 72.5178 320.344C71.2059 319.761 70.1856 319.178 69.1653 318.595C69.0196 318.303 69.0196 318.157 68.8738 317.866C66.9789 311.89 69.0196 304.31 77.4736 302.561C77.6193 302.561 77.7651 302.561 77.9108 302.561C78.2023 302.853 79.3684 303.144 82.2836 303.582C90.3002 304.893 99.0457 306.934 99.9202 307.225C106.771 308.975 104.147 294.836 102.398 285.653C102.252 284.633 102.981 283.467 104.001 283.467C104.293 283.467 104.439 283.467 104.73 283.467C104.876 283.467 104.876 283.467 105.022 283.467C105.168 283.467 105.459 283.467 105.605 283.467C106.188 283.467 106.917 283.467 107.5 283.321C107.645 283.321 107.937 283.321 108.083 283.321C109.978 283.321 111.727 283.467 113.33 283.613C113.476 283.613 113.476 283.613 113.622 283.613C114.642 283.758 115.662 283.904 116.391 284.05C118.723 292.067 120.326 301.249 119.16 307.08Z" fill="#EF3340"/>
<path d="M127.467 323.113C127.467 323.113 124.26 317.137 110.559 315.388C101.668 314.95 92.6308 311.452 82.5735 308.683C75.2856 306.351 67.7061 313.201 69.601 319.906L70.0382 320.198C71.7873 326.028 78.055 330.838 86.3632 332.441C97.7323 334.774 109.976 332.441 119.304 332.296C126.738 331.567 129.799 328.652 127.467 323.113Z" fill="#303036"/>
<path d="M126.449 330.984C126.157 331.421 125.866 331.712 125.428 332.004C125.137 332.15 124.845 332.441 124.408 332.587C123.679 332.879 122.95 333.17 122.076 333.462C121.784 333.607 121.493 333.607 121.201 333.607C120.91 333.607 120.618 333.753 120.327 333.753C119.744 333.899 119.015 333.899 118.286 334.045H118.14C117.849 334.045 117.557 334.045 117.266 334.045C116.974 334.045 116.683 334.045 116.391 334.045C115.662 334.045 114.934 334.19 114.205 334.19C113.913 334.19 113.622 334.19 113.33 334.19C113.039 334.19 112.747 334.19 112.456 334.19C111.727 334.19 110.998 334.336 110.27 334.336C109.978 334.336 109.686 334.336 109.395 334.336C109.103 334.336 108.812 334.336 108.52 334.336C107.792 334.336 107.063 334.482 106.334 334.482C106.043 334.482 105.751 334.482 105.459 334.482C105.168 334.482 104.876 334.482 104.585 334.482C103.856 334.482 103.127 334.628 102.399 334.628C102.107 334.628 101.816 334.628 101.524 334.628C101.233 334.628 100.941 334.628 100.649 334.628C99.9207 334.628 99.1919 334.628 98.4631 334.628C98.1716 334.628 97.8801 334.628 97.5886 334.628C97.297 334.628 97.0055 334.628 96.714 334.628C95.9852 334.628 95.2564 334.628 94.5276 334.482C94.2361 334.482 93.9446 334.482 93.6531 334.482C93.3616 334.482 93.0701 334.482 92.7786 334.482C92.0498 334.482 91.321 334.336 90.5922 334.19C90.3007 334.19 90.0091 334.19 89.7176 334.045C89.4261 334.045 89.1346 333.899 88.8431 333.899C88.1143 333.753 87.3855 333.607 86.8024 333.462H86.6567C86.511 333.462 86.3652 333.462 86.2195 333.316C86.0737 333.316 86.0737 333.316 85.9279 333.316C85.6364 333.316 85.3448 333.17 85.0533 333.17C84.3245 333.024 83.7416 332.733 83.0128 332.587C82.7212 332.441 82.4297 332.441 82.284 332.295C81.9925 332.15 81.7009 332.15 81.5552 332.004C80.8264 331.712 80.2433 331.421 79.5145 331.129C79.223 330.984 78.9315 330.838 78.7857 330.692C78.4942 330.546 78.2027 330.401 78.057 330.255C77.3282 329.818 76.7451 329.526 76.1621 329.089C75.8706 328.943 75.5791 328.797 75.4333 328.652C75.1418 328.506 74.9961 328.36 74.7045 328.069C73.9757 327.631 73.3927 327.048 72.8097 326.465C72.5182 326.174 72.3724 326.028 72.0809 325.736C71.7894 325.445 71.6436 325.299 71.3521 325.008C70.6233 324.279 70.0403 323.404 69.603 322.675C69.3115 322.238 69.1657 321.801 69.0199 321.509C68.8742 321.218 68.7284 320.781 68.5827 320.489C68.5827 320.343 68.437 320.052 68.437 319.906C68.1454 318.303 68.4369 316.554 69.3115 314.95C69.603 314.367 70.0402 313.784 70.4775 313.347C70.769 312.91 71.2063 312.618 71.4978 312.327C72.2266 311.744 73.1012 311.161 73.9757 310.723C74.2673 310.578 74.5587 310.432 74.8503 310.286C75.1418 310.14 75.4333 310.14 75.7249 309.995C76.4537 309.849 77.1824 309.703 77.9112 309.703H78.7857L79.6603 309.849C80.0976 309.849 80.6806 309.995 81.1179 310.14C81.2637 310.14 81.5551 310.286 81.7009 310.286C81.9924 310.432 82.284 310.432 82.5755 310.578C82.867 310.723 83.1585 310.723 83.3043 310.869C84.0331 311.015 84.6161 311.306 85.3449 311.452C85.6364 311.598 85.9279 311.598 86.2195 311.744C86.511 311.889 86.8025 311.889 87.094 312.035C87.8228 312.181 88.4058 312.472 89.1346 312.618C89.4261 312.764 89.7176 312.764 90.0091 312.91L90.8836 313.201C91.6124 313.347 92.1955 313.638 92.9243 313.784C93.2158 313.93 93.5073 313.93 93.7988 314.076C94.0903 314.222 94.3819 314.222 94.6734 314.367C95.4022 314.513 95.9852 314.805 96.714 314.95C97.0055 314.95 97.297 315.096 97.5886 315.096C97.8801 315.096 98.1716 315.242 98.4631 315.242C99.1919 315.388 99.7749 315.533 100.504 315.679C100.795 315.679 101.087 315.825 101.378 315.825C101.67 315.825 101.961 315.971 102.253 315.971C102.982 316.116 103.71 316.262 104.293 316.408C104.585 316.408 104.876 316.554 105.168 316.554C105.46 316.554 105.751 316.699 106.043 316.699C106.771 316.845 107.5 316.845 108.083 316.991C108.375 316.991 108.666 316.991 108.958 316.991C109.249 316.991 109.395 316.991 109.686 316.991H109.832C110.561 317.137 111.29 317.137 111.873 317.282C112.164 317.282 112.456 317.428 112.747 317.428C113.039 317.428 113.33 317.574 113.622 317.574C114.351 317.72 115.079 317.865 115.662 318.011L116.537 318.157C116.829 318.157 117.12 318.303 117.412 318.303C118.14 318.448 118.869 318.74 119.452 318.886C119.744 319.032 120.035 319.032 120.181 319.177C120.473 319.323 120.764 319.323 120.91 319.469C121.639 319.76 122.222 320.198 122.805 320.635C123.096 320.781 123.242 321.072 123.533 321.218C123.825 321.364 123.971 321.655 124.262 321.801C124.845 322.384 125.428 323.113 126.011 323.842C126.157 324.133 126.449 324.425 126.594 324.716C126.594 324.862 126.594 324.862 126.74 325.008C127.032 325.591 127.177 326.174 127.323 326.757C127.469 328.506 127.177 329.963 126.449 330.984Z" fill="#303036"/>
<path d="M70.0401 323.258C69.7486 322.821 69.6028 322.384 69.4571 322.092C69.3113 321.801 69.1655 321.364 69.0197 321.072C69.0197 320.926 68.874 320.635 68.874 320.489L69.7485 315.533C70.0401 314.95 70.4774 314.367 70.9147 313.93C71.2062 313.493 71.6434 313.201 71.9349 312.91L70.0401 323.258Z" fill="#3D3D44"/>
<path d="M73.2491 327.048C72.9576 326.757 72.8118 326.611 72.5203 326.32C72.2288 326.028 72.083 325.882 71.7915 325.591L74.4151 311.015C74.7066 310.869 74.9982 310.724 75.2897 310.578C75.5812 310.432 75.8727 310.432 76.1642 310.286L73.2491 327.048Z" fill="#3D3D44"/>
<path d="M76.6016 329.672C76.3101 329.526 76.0186 329.38 75.8728 329.235C75.5813 329.089 75.4356 328.943 75.144 328.651L78.4965 310.14H79.3711L80.2456 310.286L76.6016 329.672Z" fill="#3D3D44"/>
<path d="M80.0967 331.567C79.8052 331.421 79.5137 331.275 79.368 331.13C79.0764 330.984 78.7849 330.838 78.6392 330.692L82.2831 310.578C82.5746 310.723 82.8661 310.723 83.1576 310.869C83.4491 311.015 83.7407 311.015 83.8864 311.161L80.0967 331.567Z" fill="#3D3D44"/>
<path d="M83.7418 333.024C83.4502 332.878 83.1587 332.878 83.013 332.732C82.7215 332.587 82.4299 332.587 82.2842 332.441L86.0739 311.743C86.3654 311.889 86.6569 311.889 86.9485 312.035C87.24 312.181 87.5314 312.181 87.823 312.326L83.7418 333.024Z" fill="#3D3D44"/>
<path d="M91.1765 313.347L87.3868 334.045H87.241L86.5122 333.899L85.6377 333.753L89.4274 312.91C89.7189 313.055 90.0105 313.055 90.302 313.201L91.1765 313.347Z" fill="#3D3D44"/>
<path d="M91.1734 334.627C90.8819 334.627 90.5904 334.627 90.2989 334.481C90.0074 334.481 89.7158 334.336 89.4243 334.336L93.2141 313.929C93.5056 314.075 93.7971 314.075 94.0886 314.221C94.3801 314.367 94.6717 314.367 94.9632 314.513L91.1734 334.627Z" fill="#3D3D44"/>
<path d="M94.9664 334.92H94.0918H93.2173L96.8612 315.097C97.1528 315.097 97.4442 315.242 97.7357 315.242C98.0273 315.242 98.3188 315.388 98.6103 315.388L94.9664 334.92Z" fill="#3D3D44"/>
<path d="M98.753 335.065H97.8785H97.0039L100.502 315.825C100.794 315.825 101.085 315.971 101.377 315.971C101.668 315.971 101.96 316.116 102.251 316.116L98.753 335.065Z" fill="#3D3D44"/>
<path d="M102.545 334.919C102.253 334.919 101.962 334.919 101.67 334.919C101.379 334.919 101.087 334.919 100.796 334.919L104.148 316.408C104.44 316.408 104.731 316.554 105.023 316.554C105.314 316.554 105.606 316.699 105.897 316.699L102.545 334.919Z" fill="#3D3D44"/>
<path d="M106.479 334.773C106.188 334.773 105.896 334.773 105.605 334.773C105.313 334.773 105.021 334.773 104.73 334.773L107.937 316.991C108.228 316.991 108.52 316.991 108.811 316.991C109.103 316.991 109.249 316.991 109.54 316.991H109.686L106.479 334.773Z" fill="#3D3D44"/>
<path d="M110.414 334.482C110.123 334.482 109.831 334.482 109.54 334.482C109.248 334.482 108.957 334.482 108.665 334.482L111.726 317.282C112.018 317.282 112.309 317.428 112.601 317.428C112.892 317.428 113.184 317.574 113.475 317.574L110.414 334.482Z" fill="#3D3D44"/>
<path d="M116.393 318.157C116.684 318.157 116.976 318.303 117.267 318.303L114.352 334.044C114.061 334.044 113.769 334.044 113.478 334.044C113.186 334.044 112.895 334.044 112.603 334.044L115.518 317.719L116.393 318.157Z" fill="#3D3D44"/>
<path d="M118.141 334.045C117.849 334.045 117.558 334.045 117.266 334.045C116.975 334.045 116.683 334.045 116.392 334.045L119.161 318.886C119.453 319.032 119.744 319.032 119.89 319.177C120.181 319.323 120.473 319.323 120.619 319.469L118.141 334.045Z" fill="#3D3D44"/>
<path d="M122.079 333.461C121.787 333.607 121.496 333.607 121.204 333.607C120.913 333.607 120.621 333.753 120.33 333.753L122.662 320.78C122.953 320.926 123.099 321.218 123.391 321.363C123.682 321.509 123.828 321.801 124.119 321.946L122.079 333.461Z" fill="#3D3D44"/>
<path d="M126.448 330.984C126.156 331.421 125.865 331.713 125.428 332.004C125.136 332.15 124.845 332.441 124.407 332.587L126.011 324.133C126.156 324.425 126.448 324.716 126.594 325.008C126.594 325.154 126.594 325.154 126.739 325.299C127.031 325.882 127.177 326.465 127.322 327.048L126.448 330.984Z" fill="#3D3D44"/>
<path d="M93.9442 291.921C93.7984 291.921 93.5069 291.775 93.3611 291.629C92.7781 291.192 92.6324 290.317 93.2154 289.734C95.8391 286.528 100.066 285.216 105.605 286.09C106.334 286.236 106.917 286.965 106.771 287.694C106.625 288.423 105.896 289.006 105.168 288.86C100.649 288.131 97.4424 289.151 95.4018 291.484C94.9645 291.921 94.3815 292.067 93.9442 291.921Z" fill="white"/>
<path d="M106.187 293.086C102.106 292.212 98.4623 292.795 95.4014 295.273L106.187 293.086Z" fill="#7A2250"/>
<path d="M95.1105 296.585C94.8189 296.585 94.5275 296.293 94.236 296.148C93.7987 295.565 93.7986 294.69 94.5274 294.253C97.7341 291.629 101.67 290.9 106.334 291.775C106.48 291.775 106.48 291.775 106.625 291.775C107.354 291.921 107.791 292.65 107.646 293.378C107.5 294.107 106.771 294.544 106.042 294.399C102.253 293.524 99.046 294.107 96.4223 296.293C95.985 296.585 95.5477 296.585 95.1105 296.585Z" fill="white"/>
<path d="M106.772 298.626C102.982 297.46 99.63 297.897 96.7148 299.792L106.772 298.626Z" fill="#7A2250"/>
<path d="M96.4233 301.25C96.1318 301.25 95.6945 300.958 95.5487 300.667C95.1114 300.084 95.2572 299.209 95.986 298.772C99.3384 296.586 103.128 296.148 107.209 297.46C107.938 297.752 108.375 298.48 108.084 299.209C107.792 299.938 107.064 300.375 106.335 300.084C102.982 299.063 100.067 299.355 97.4435 301.104C97.152 301.25 96.7148 301.25 96.4233 301.25Z" fill="white"/>
<path d="M153.417 254.315C159.83 251.691 177.613 251.546 179.653 254.315L181.548 261.311L156.915 263.935L153.417 254.315Z" fill="#AAB3C6"/>
<path d="M159.829 269.328C158.955 264.664 160.412 260.437 163.182 260C165.951 259.417 168.866 262.769 169.887 267.434C170.761 272.098 169.304 276.325 166.534 276.762C163.765 277.345 160.704 273.993 159.829 269.328Z" fill="#7A2250"/>
<path d="M161.431 280.697C160.556 280.405 152.248 278.948 144.231 277.49C141.316 277.053 140.15 275.595 139.275 275.304C139.713 275.304 140.442 275.158 140.879 275.158C146.418 274.867 156.766 276.47 157.641 276.324C162.451 275.741 144.814 256.938 155.6 254.606C156.038 254.46 163.617 254.46 164.492 258.25C166.095 267.141 177.318 284.778 161.431 280.697Z" fill="#EF3340"/>
<path d="M189.709 298.48C189.563 299.5 189.271 300.521 188.834 301.249C188.251 302.415 187.376 303.29 186.356 303.727C182.421 305.331 149.625 301.832 137.819 298.043C135.924 297.46 134.466 296.877 133.883 296.148C133.154 295.419 132.426 294.545 131.843 293.524C131.697 293.378 131.697 293.233 131.551 293.087C131.405 292.795 131.26 292.358 130.968 291.921C130.968 291.775 130.822 291.629 130.822 291.338C131.697 291.921 132.863 292.504 134.175 293.087C136.944 288.714 141.171 282.155 142.483 280.843C154.435 284.633 173.529 286.674 177.465 285.07C178.631 284.633 179.36 283.758 179.943 282.592C180.38 281.864 180.671 280.843 180.817 279.823C181.983 274.138 180.234 264.81 178.048 256.502C179.505 256.793 180.672 257.231 180.963 257.668C182.566 259.563 192.041 286.528 189.709 298.48Z" fill="#9E2966"/>
<path d="M169.45 304.893C175.863 306.497 173.968 294.69 172.219 285.507C171.782 283.175 173.531 280.989 175.863 280.843C179.653 280.697 183.442 280.989 185.92 281.426C187.378 281.718 188.544 282.155 188.835 282.592C190.293 284.487 199.913 311.452 197.581 323.259C197.435 324.279 197.144 325.299 196.706 326.028C196.123 327.194 195.249 328.069 194.228 328.506C190.293 330.109 157.497 326.611 145.691 322.821C145.399 322.384 145.108 322.093 144.962 321.655C144.816 321.51 144.816 321.364 144.671 321.218C144.525 320.927 144.379 320.489 144.088 320.052C143.942 319.615 144.088 319.032 143.65 318.74C143.067 318.449 142.484 318.303 142.047 318.011C140.735 317.428 139.715 316.845 138.695 316.262C138.549 315.971 138.549 315.825 138.403 315.533C136.508 309.557 138.549 301.978 147.003 300.229C147.149 300.229 148.606 300.083 148.752 300.083" fill="#7A2250"/>
<path d="M180.817 279.968C180.671 280.989 180.38 282.009 179.943 282.738C179.36 283.904 178.485 284.778 177.465 285.216C173.821 286.673 157.204 285.216 145.398 281.863C143.649 281.426 141.608 282.009 140.588 283.612C138.693 286.236 136.215 290.317 134.32 293.232C133.009 292.649 131.988 292.066 130.968 291.483C130.822 291.192 130.822 291.046 130.677 290.754C128.782 284.778 130.822 277.199 139.276 275.45C139.422 275.45 160.703 279.823 161.577 279.968C168.428 281.717 165.804 267.579 164.055 258.396C163.909 257.376 164.638 256.356 165.658 256.21C165.95 256.21 166.096 256.21 166.387 256.21C166.533 256.21 166.533 256.21 166.679 256.21C166.824 256.21 167.116 256.21 167.262 256.21C167.845 256.21 168.574 256.21 169.157 256.064C169.302 256.064 169.594 256.064 169.74 256.064C171.635 256.064 173.384 256.21 174.987 256.356C175.133 256.356 175.133 256.356 175.278 256.356C176.299 256.501 177.319 256.647 178.048 256.793C180.234 264.955 181.983 274.138 180.817 279.968Z" fill="#EF3340"/>
<path d="M169.012 260.729C168.72 261.749 167.7 262.478 166.679 262.332C165.659 262.186 164.93 261.02 165.076 260C165.222 258.979 166.388 258.251 167.408 258.396C168.574 258.542 169.303 259.562 169.012 260.729Z" fill="#3D3D44"/>
<path d="M170.032 266.413C169.741 267.433 168.72 268.162 167.7 268.016C166.68 267.725 165.951 266.704 166.097 265.684C166.388 264.664 167.408 263.935 168.429 264.081C169.595 264.227 170.324 265.247 170.032 266.413Z" fill="#3D3D44"/>
<path d="M170.761 272.097C170.47 273.118 169.449 273.847 168.429 273.701C167.409 273.409 166.68 272.389 166.826 271.369C166.971 270.348 168.137 269.62 169.158 269.765C170.324 269.911 170.907 271.077 170.761 272.097Z" fill="#3D3D44"/>
<path d="M189.126 296.002C189.126 296.002 185.919 290.026 172.218 288.277C163.326 287.839 154.289 284.341 144.232 281.572C136.944 279.24 129.365 286.09 131.26 292.795L131.697 293.087C133.446 298.917 139.714 303.727 148.022 305.33C159.391 307.662 171.635 305.33 180.963 305.185C188.251 304.456 191.458 301.541 189.126 296.002Z" fill="#303036"/>
<path d="M187.96 303.873C187.669 304.31 187.377 304.602 186.94 304.893C186.649 305.039 186.357 305.33 185.92 305.476C185.191 305.768 184.462 306.059 183.588 306.351C183.296 306.351 183.005 306.497 182.713 306.497C182.421 306.497 182.13 306.642 181.838 306.642C181.255 306.788 180.527 306.788 179.798 306.934H179.652C179.361 306.934 179.069 306.934 178.778 306.934C178.486 306.934 178.195 306.934 177.903 306.934C177.174 306.934 176.445 307.08 175.717 307.08C175.425 307.08 175.134 307.08 174.842 307.08C174.551 307.08 174.259 307.08 173.968 307.08C173.239 307.08 172.51 307.225 171.781 307.225C171.49 307.225 171.198 307.225 170.907 307.225C170.615 307.225 170.324 307.225 170.032 307.225C169.303 307.225 168.575 307.371 167.846 307.371C167.554 307.371 167.263 307.371 166.971 307.371C166.68 307.371 166.388 307.371 166.097 307.371C165.368 307.371 164.639 307.517 163.91 307.517C163.619 307.517 163.327 307.517 163.036 307.517C162.744 307.517 162.453 307.517 162.161 307.517C161.432 307.517 160.704 307.517 159.975 307.517C159.683 307.517 159.392 307.517 159.1 307.517C158.809 307.517 158.517 307.517 158.226 307.517C157.497 307.517 156.768 307.517 156.039 307.371C155.748 307.371 155.456 307.371 155.165 307.371C154.873 307.371 154.582 307.371 154.29 307.371C153.561 307.371 152.833 307.225 152.104 307.08C151.812 307.08 151.521 307.08 151.229 306.934C150.938 306.934 150.646 306.788 150.355 306.788C149.626 306.642 148.897 306.497 148.314 306.351H148.168C148.023 306.351 147.877 306.351 147.731 306.205C147.585 306.205 147.585 306.205 147.44 306.205C147.148 306.205 146.857 306.059 146.565 306.059C145.836 305.913 145.253 305.622 144.524 305.476C144.233 305.33 143.941 305.33 143.796 305.185C143.504 305.039 143.213 305.039 143.067 304.893C142.338 304.602 141.755 304.31 141.026 304.019C140.735 303.873 140.443 303.727 140.297 303.581C140.006 303.436 139.714 303.29 139.569 303.144C138.84 302.707 138.257 302.415 137.674 301.978C137.382 301.832 137.091 301.686 136.945 301.541C136.654 301.395 136.508 301.249 136.216 300.958C135.487 300.52 134.904 299.937 134.321 299.354C134.03 299.063 133.884 298.917 133.593 298.626C133.301 298.334 133.155 298.188 132.864 297.897C132.135 297.168 131.552 296.293 131.115 295.565C130.823 295.127 130.677 294.69 130.532 294.399C130.386 294.107 130.24 293.67 130.094 293.378C130.094 293.233 129.949 292.941 129.949 292.795C129.657 291.192 129.949 289.443 130.823 287.839C131.115 287.256 131.552 286.673 131.989 286.236C132.281 285.799 132.718 285.507 133.01 285.216C133.738 284.633 134.613 284.05 135.487 283.612C135.779 283.467 136.07 283.321 136.362 283.175C136.653 283.029 136.945 283.029 137.237 282.884C137.965 282.738 138.694 282.592 139.423 282.592H140.297L141.172 282.738C141.609 282.738 142.192 282.884 142.63 283.029C142.775 283.029 143.067 283.175 143.213 283.175C143.504 283.321 143.796 283.321 144.087 283.467C144.379 283.612 144.67 283.612 144.816 283.758C145.545 283.904 146.128 284.196 146.857 284.341C147.148 284.487 147.44 284.487 147.731 284.633C148.023 284.779 148.314 284.779 148.606 284.924C149.334 285.07 149.917 285.362 150.646 285.507C150.938 285.653 151.229 285.653 151.521 285.799L152.395 286.09C153.124 286.236 153.707 286.528 154.436 286.673C154.728 286.819 155.019 286.819 155.311 286.965C155.602 287.111 155.894 287.111 156.185 287.256C156.914 287.402 157.497 287.694 158.226 287.839C158.517 287.839 158.809 287.985 159.1 287.985C159.392 287.985 159.683 288.131 159.975 288.131C160.704 288.277 161.287 288.422 162.015 288.568C162.307 288.568 162.598 288.714 162.89 288.714C163.181 288.714 163.473 288.86 163.764 288.86C164.493 289.006 165.222 289.151 165.805 289.297C166.097 289.297 166.388 289.443 166.68 289.443C166.971 289.443 167.263 289.589 167.554 289.589C168.283 289.734 169.012 289.734 169.595 289.88C169.886 289.88 170.178 289.88 170.469 289.88C170.761 289.88 170.907 289.88 171.198 289.88H171.344C172.073 290.026 172.802 290.026 173.385 290.172C173.676 290.172 173.968 290.317 174.259 290.317C174.551 290.317 174.842 290.463 175.134 290.463C175.862 290.609 176.591 290.755 177.174 290.9L178.049 291.046C178.34 291.046 178.632 291.192 178.923 291.192C179.652 291.338 180.381 291.629 180.964 291.775C181.256 291.921 181.547 291.921 181.693 292.066C181.984 292.212 182.276 292.212 182.422 292.358C183.15 292.649 183.733 293.087 184.316 293.524C184.608 293.67 184.754 293.961 185.045 294.107C185.337 294.253 185.482 294.544 185.774 294.69C186.357 295.273 186.94 296.002 187.523 296.731C187.669 297.022 187.96 297.314 188.106 297.605C188.106 297.751 188.106 297.751 188.252 297.897C188.543 298.48 188.689 299.063 188.835 299.646C188.981 301.395 188.835 302.853 187.96 303.873Z" fill="#303036"/>
<path d="M131.699 296.002C131.407 295.565 131.262 295.127 131.116 294.836C130.97 294.544 130.824 294.107 130.679 293.815C130.679 293.67 130.533 293.378 130.533 293.232L131.407 288.277C131.699 287.694 132.136 287.111 132.573 286.673C132.865 286.236 133.302 285.944 133.594 285.653L131.699 296.002Z" fill="#3D3D44"/>
<path d="M134.906 299.791C134.615 299.5 134.469 299.354 134.178 299.062C133.886 298.771 133.74 298.625 133.449 298.334L136.072 283.758C136.364 283.612 136.655 283.466 136.947 283.32C137.238 283.175 137.53 283.175 137.821 283.029L134.906 299.791Z" fill="#3D3D44"/>
<path d="M138.258 302.415C137.967 302.269 137.675 302.124 137.53 301.978C137.238 301.832 137.092 301.686 136.801 301.395L140.153 282.884H141.028L141.902 283.029L138.258 302.415Z" fill="#3D3D44"/>
<path d="M141.754 304.31C141.462 304.164 141.171 304.018 141.025 303.872C140.734 303.727 140.442 303.581 140.296 303.435L143.94 283.32C144.232 283.466 144.523 283.466 144.815 283.612C145.106 283.758 145.398 283.758 145.544 283.904L141.754 304.31Z" fill="#3D3D44"/>
<path d="M145.252 305.768C144.96 305.622 144.669 305.622 144.523 305.476C144.232 305.33 143.94 305.33 143.794 305.185L147.584 284.487C147.876 284.633 148.167 284.633 148.459 284.779C148.75 284.924 149.042 284.924 149.333 285.07L145.252 305.768Z" fill="#3D3D44"/>
<path d="M152.685 286.09L148.896 306.788H148.75L148.021 306.642L147.146 306.497L150.936 285.653C151.228 285.799 151.519 285.799 151.811 285.945L152.685 286.09Z" fill="#3D3D44"/>
<path d="M152.686 307.371C152.395 307.371 152.103 307.371 151.812 307.225C151.52 307.225 151.229 307.079 150.937 307.079L154.727 286.673C155.018 286.819 155.31 286.819 155.601 286.965C155.893 287.111 156.184 287.111 156.476 287.256L152.686 307.371Z" fill="#3D3D44"/>
<path d="M156.475 307.808H155.601H154.726L158.37 287.985C158.662 287.985 158.953 288.131 159.245 288.131C159.536 288.131 159.828 288.277 160.119 288.277L156.475 307.808Z" fill="#3D3D44"/>
<path d="M160.266 307.954H159.391H158.517L162.161 288.714C162.452 288.714 162.744 288.859 163.035 288.859C163.327 288.859 163.618 289.005 163.91 289.005L160.266 307.954Z" fill="#3D3D44"/>
<path d="M164.204 307.809C163.912 307.809 163.621 307.809 163.329 307.809C163.038 307.809 162.746 307.809 162.455 307.809L165.807 289.297C166.099 289.297 166.39 289.443 166.682 289.443C166.973 289.443 167.265 289.589 167.556 289.589L164.204 307.809Z" fill="#3D3D44"/>
<path d="M167.992 307.662C167.7 307.662 167.409 307.662 167.117 307.662C166.826 307.662 166.534 307.662 166.243 307.662L169.449 289.88C169.741 289.88 170.032 289.88 170.324 289.88C170.615 289.88 170.761 289.88 171.053 289.88H171.198L167.992 307.662Z" fill="#3D3D44"/>
<path d="M171.926 307.371C171.635 307.371 171.343 307.371 171.052 307.371C170.76 307.371 170.469 307.371 170.177 307.371L173.238 290.171C173.53 290.171 173.821 290.317 174.113 290.317C174.404 290.317 174.696 290.463 174.987 290.463L171.926 307.371Z" fill="#3D3D44"/>
<path d="M177.905 291.192C178.197 291.192 178.488 291.338 178.78 291.338L175.865 307.08C175.573 307.08 175.282 307.08 174.99 307.08C174.699 307.08 174.407 307.08 174.116 307.08L177.031 290.755L177.905 291.192Z" fill="#3D3D44"/>
<path d="M179.799 306.933C179.507 306.933 179.216 306.933 178.924 306.933C178.633 306.933 178.341 306.933 178.05 306.933L180.819 291.775C181.111 291.92 181.402 291.92 181.548 292.066C181.839 292.212 182.131 292.212 182.277 292.358L179.799 306.933Z" fill="#3D3D44"/>
<path d="M183.733 306.351C183.442 306.351 183.15 306.496 182.859 306.496C182.567 306.496 182.276 306.642 181.984 306.642L184.317 293.67C184.608 293.815 184.754 294.107 185.045 294.253C185.337 294.398 185.483 294.69 185.774 294.836L183.733 306.351Z" fill="#3D3D44"/>
<path d="M187.961 303.872C187.669 304.31 187.378 304.601 186.94 304.893C186.649 305.038 186.357 305.33 185.92 305.476L187.523 297.022C187.669 297.313 187.961 297.605 188.106 297.896C188.106 298.042 188.106 298.042 188.252 298.188C188.544 298.771 188.689 299.354 188.835 299.937L187.961 303.872Z" fill="#3D3D44"/>
<path d="M154 266.559C153.854 266.559 153.563 266.413 153.417 266.267C152.834 265.83 152.688 264.955 153.271 264.372C155.895 261.166 161.725 258.105 167.118 258.979C167.847 259.125 168.43 259.854 168.284 260.583C168.138 261.311 167.41 261.894 166.681 261.749C162.454 261.166 157.644 263.498 155.457 266.267C155.02 266.559 154.437 266.704 154 266.559Z" fill="white"/>
<path d="M167.843 265.976C163.762 265.101 159.389 267.142 156.328 269.62L167.843 265.976Z" fill="#7A2250"/>
<path d="M156.038 270.932C155.746 270.932 155.455 270.64 155.163 270.494C154.726 269.911 154.726 269.037 155.455 268.6C157.495 266.996 162.597 263.498 167.99 264.664H168.136C168.864 264.81 169.302 265.539 169.156 266.268C169.01 266.996 168.281 267.434 167.553 267.288C167.553 267.288 167.553 267.288 167.407 267.288C163.18 266.413 158.807 269.328 157.204 270.64C156.912 270.932 156.475 271.078 156.038 270.932Z" fill="white"/>
<path d="M168.285 271.515C164.495 270.349 161.143 271.952 158.082 273.992L168.285 271.515Z" fill="#7A2250"/>
<path d="M157.935 275.304C157.643 275.304 157.206 275.013 157.06 274.721C156.623 274.138 156.769 273.264 157.498 272.826C160.413 270.931 164.348 268.891 168.867 270.203C169.596 270.494 170.033 271.223 169.741 271.952C169.45 272.681 168.721 273.118 167.992 272.826C164.64 271.806 161.579 273.409 158.955 275.013C158.664 275.304 158.226 275.304 157.935 275.304Z" fill="white"/>
<path d="M274.538 287.839C265.355 303.581 245.532 315.97 223.231 330.255C182.273 353.722 144.084 373.545 111.289 386.372C109.977 386.955 108.665 387.392 107.353 388.121C84.7607 399.781 42.0535 400.656 19.461 389.141C-5.31781 378.063 0.366802 356.054 8.67501 351.244C16.2544 346.725 42.6366 346.871 53.2769 343.081C54.443 342.644 55.7548 342.207 56.9209 341.915C59.1072 341.332 62.314 340.02 66.5409 338.126C72.8085 335.356 80.971 331.275 90.591 326.319C104.001 319.323 119.888 310.577 136.213 301.103C143.938 296.585 151.955 291.92 159.68 287.256C177.9 276.178 195.828 264.955 210.404 254.752C246.698 228.37 299.316 246.881 274.538 287.839Z" fill="#454A4D"/>
<path d="M160.555 302.997L133.589 318.739L136.213 301.103C143.938 296.584 151.955 291.92 159.68 287.256C159.971 294.398 160.555 302.997 160.555 302.997Z" fill="#101B23"/>
<path d="M91.0287 338.272L64.0635 354.014L66.3956 338.126C72.6632 335.357 80.8256 331.275 90.4456 326.32C90.7372 332.441 91.0287 338.272 91.0287 338.272Z" fill="#101B23"/>
<path d="M281.097 272.388C284.158 244.548 243.492 236.678 212.445 258.979C169.301 288.713 99.3371 327.922 68.7279 341.915C67.5619 342.498 66.3957 342.935 65.3754 343.372C61.44 345.121 58.3791 346.288 56.3385 346.725C55.3182 347.016 54.1521 347.308 53.1318 347.745C47.7388 349.494 37.2442 349.786 27.3326 350.369C16.9838 350.952 7.07226 351.681 4.01134 354.596C-2.83929 361.446 -3.27658 380.686 21.9396 391.91C34.329 398.177 51.9657 401.53 69.0194 401.53C80.68 401.53 92.1949 399.781 101.669 396.428C104.439 395.408 107.208 394.242 109.54 392.93C143.21 380.249 182.419 360.135 224.689 336.23C225.126 335.939 225.564 335.793 225.855 335.501C234.455 329.963 242.326 324.278 249.176 318.594C260.254 309.411 268.854 299.791 274.684 290.025C278.474 283.466 280.514 277.636 281.097 272.388Z" fill="#694F62"/>
<path d="M126.302 337.251C135.339 316.262 150.352 301.103 167.406 287.839C130.383 310.285 90.1544 332.149 68.7279 341.915C67.5619 342.498 66.3957 342.935 65.3754 343.373C61.44 345.122 58.3791 346.288 56.3385 346.725C55.3182 347.016 54.1521 347.308 53.1318 347.745C47.7388 349.494 37.2442 349.786 27.3326 350.369C16.9838 350.952 7.07226 351.681 4.01134 354.596C-2.83929 361.447 -3.27658 380.687 21.9396 391.91C34.329 398.178 51.9657 401.53 69.0194 401.53C80.68 401.53 92.1949 399.781 101.669 396.428C104.439 395.408 107.208 394.242 109.54 392.93C114.496 391.035 119.743 388.995 124.99 386.663C116.099 373.253 120.18 352.118 126.302 337.251Z" fill="#A9B1D1"/>
<path d="M212.446 258.979C199.327 268.016 183.585 278.073 167.261 287.839C150.207 300.957 135.194 316.262 126.157 337.251C120.035 352.118 116.1 373.253 124.699 386.663C154.725 373.982 188.396 356.491 224.398 336.085C224.835 335.793 225.272 335.647 225.564 335.356C234.164 329.817 242.034 324.133 248.885 318.448C259.963 309.265 268.562 299.645 274.393 289.879C278.328 283.32 280.515 277.49 280.952 272.243C284.158 244.695 243.492 236.678 212.446 258.979Z" fill="#C1C6DB"/>
<g opacity="0.95">
<path opacity="0.95" d="M101.524 396.429C92.0493 399.928 80.5344 401.531 68.8738 401.531C57.5046 393.66 41.6171 378.647 27.187 350.37C37.0986 349.787 47.5931 349.495 52.9861 347.746C54.0064 347.455 55.1725 347.017 56.1928 346.726C58.2334 346.143 61.2943 344.977 65.2298 343.373C65.3756 343.519 65.5213 343.665 65.5213 343.665L101.524 396.429Z" fill="#AAB3C6"/>
</g>
<g opacity="0.53">
<path opacity="0.53" d="M249.029 318.594C241.887 324.57 233.578 330.4 224.541 336.231C220.606 328.797 214.63 318.74 205.884 306.787C186.79 280.405 190.871 279.968 194.807 272.826L248.3 315.824L249.029 318.594Z" fill="#AAB3C6"/>
</g>
<path d="M236.784 282.445L241.594 287.401C244.655 290.608 244.655 295.709 241.448 298.77L231.974 307.953C228.767 311.014 223.666 311.014 220.605 307.807L215.795 302.852C212.734 299.645 212.734 294.543 215.941 291.482L225.415 282.3C228.622 279.239 233.723 279.239 236.784 282.445Z" fill="#343743"/>
<path d="M239.264 284.632L244.219 289.733C247.426 292.94 247.28 298.187 244.074 301.394L234.454 310.868C231.247 314.075 226 313.929 222.793 310.722L217.837 305.621C214.631 302.414 214.776 297.167 217.983 293.96L227.603 284.486C230.956 281.279 236.203 281.425 239.264 284.632Z" fill="#6D7184"/>
<path d="M256.606 320.051C258.646 324.278 255.731 329.817 250.338 332.441C244.799 335.064 238.823 333.753 236.783 329.526C234.742 325.299 237.657 319.76 243.05 317.136C248.589 314.513 254.565 315.824 256.606 320.051Z" fill="#D7932A"/>
<path d="M241.886 335.502C238.533 334.773 236.201 333.024 234.889 330.4C232.411 325.153 235.618 318.448 242.177 315.387C248.59 312.326 256.024 314.076 258.502 319.323C260.98 324.57 257.773 331.275 251.214 334.336C248.153 335.648 244.947 336.085 241.886 335.502ZM250.631 318.011C248.59 317.574 246.258 317.865 243.926 319.031C239.553 321.072 237.076 325.445 238.679 328.651C239.408 330.109 240.865 331.129 242.76 331.567C244.946 332.004 247.279 331.712 249.465 330.692C253.838 328.651 256.316 324.279 254.712 321.072C253.983 319.323 252.526 318.448 250.631 318.011Z" fill="#D7932A"/>
<path d="M246.985 305.621L256.022 316.261L236.49 332.294L226.724 321.654L246.985 305.621Z" fill="#D7932A"/>
<path d="M236.492 332.587L226.289 321.655L246.987 305.184L256.461 316.116L236.492 332.587ZM227.164 321.801L236.638 332.004L255.732 316.262L246.987 306.059L227.164 321.801Z" fill="#D7932A"/>
<path d="M246.55 307.808C248.736 311.306 246.55 316.845 241.448 320.052C236.347 323.258 230.371 323.55 228.038 320.052C225.852 316.553 228.184 310.577 233.286 307.225C238.387 304.164 244.363 304.31 246.55 307.808Z" fill="#101B23"/>
<path d="M231.392 324.424C229.351 323.987 227.602 322.966 226.436 321.217C223.521 316.699 226.145 309.703 232.266 305.767C235.036 304.018 238.242 302.998 241.158 303.143C244.364 303.289 246.842 304.601 248.3 306.787C251.215 311.306 248.591 317.865 242.615 321.655C238.534 324.278 234.599 325.153 231.392 324.424ZM242.178 307.079C241.741 306.933 241.303 306.933 241.012 306.933C238.825 306.787 236.493 307.516 234.307 308.974C229.788 311.889 228.185 316.699 229.643 319.177C231.246 321.655 236.056 321.363 240.429 318.594C244.51 315.97 246.696 311.597 244.947 308.974C244.219 307.808 243.053 307.37 242.178 307.079Z" fill="#101B23"/>
<path d="M235.618 315.825C235.035 315.679 234.452 315.388 233.869 314.95L211.86 292.649C210.548 291.338 210.548 289.151 211.86 287.839C213.172 286.528 215.358 286.528 216.67 287.839L238.679 310.14C239.991 311.452 239.991 313.639 238.679 314.95C237.951 315.825 236.785 316.116 235.618 315.825Z" fill="#101B23"/>
<path d="M216.488 296.258C222.015 293.114 224.657 287.332 222.389 283.344C220.12 279.356 213.8 278.671 208.272 281.815C202.745 284.96 200.103 290.742 202.371 294.73C204.64 298.718 210.96 299.402 216.488 296.258Z" fill="#D7932A"/>
<path d="M206.757 300.083C203.988 299.5 201.802 298.042 200.49 295.856C197.72 290.9 200.636 283.904 207.195 280.114C213.754 276.47 221.333 277.49 224.103 282.446C225.56 284.924 225.56 287.985 224.103 291.046C222.791 293.815 220.459 296.439 217.398 298.188C214.337 299.937 210.984 300.666 207.924 300.374C207.632 300.229 207.195 300.083 206.757 300.083ZM217.106 282.009C214.774 281.572 211.859 282.009 209.235 283.612C204.717 286.09 202.385 290.754 204.134 293.67C204.863 294.981 206.466 295.856 208.361 296.147C210.547 296.439 213.171 295.856 215.357 294.544C217.689 293.232 219.438 291.337 220.459 289.297C221.333 287.402 221.333 285.799 220.604 284.341C220.021 283.175 218.71 282.446 217.106 282.009Z" fill="#D7932A"/>
<path d="M214.631 271.369L222.502 280.551L201.951 297.459L192.622 287.256L214.631 271.369Z" fill="#D7932A"/>
<path d="M213.463 272.534C215.65 276.47 213.026 282.154 207.633 285.361C202.094 288.568 195.826 288.568 193.494 284.632C191.308 280.697 193.932 274.429 199.47 271.222C204.863 268.016 211.131 268.599 213.463 272.534Z" fill="#2F3438"/>
<path d="M197.141 289.734C194.663 289.15 192.622 287.839 191.456 285.798C188.541 280.697 191.602 273.263 198.161 269.327C204.866 265.392 212.3 266.412 215.215 271.368C218.13 276.47 215.215 283.32 208.51 287.256C205.449 289.005 202.096 290.025 199.036 289.879C198.452 289.879 197.869 289.879 197.141 289.734ZM208.364 271.659C206.178 271.222 203.263 271.66 200.493 273.263C195.829 276.032 193.934 280.988 195.392 283.612C196.266 285.069 198.015 285.507 199.327 285.507C201.513 285.652 204.137 284.923 206.469 283.466C210.842 280.988 213.174 276.47 211.571 273.7C210.842 272.534 209.676 271.951 208.364 271.659Z" fill="#EDB930"/>
<path d="M225.708 306.059C224.834 305.913 223.959 305.476 223.376 304.747C221.773 302.998 221.773 300.083 223.668 298.479L229.352 293.232C231.101 291.629 234.017 291.629 235.62 293.524C237.223 295.273 237.223 298.188 235.329 299.791L229.644 305.039C228.478 305.913 227.02 306.35 225.708 306.059Z" fill="#101B23"/>
<path d="M88.1148 364.07L91.4672 370.192C93.6536 374.273 92.196 379.229 88.1148 381.416L76.3083 387.829C72.2271 390.015 67.2714 388.558 65.085 384.476L61.7325 378.355C59.5462 374.273 61.0038 369.318 65.085 367.131L76.8914 360.718C80.8269 358.532 85.9284 359.989 88.1148 364.07Z" fill="#343743"/>
<path d="M88.6974 366.402L92.4871 372.232C94.965 376.022 93.9447 381.124 90.155 383.747L78.9317 391.181C75.1419 393.659 70.0404 392.639 67.4167 388.849L63.6271 383.019C61.1492 379.229 62.1695 374.127 65.9592 371.504L77.1825 364.07C80.9722 361.592 86.2195 362.612 88.6974 366.402Z" fill="#6D7184"/>
<path d="M103.71 400.073C105.75 404.3 102.835 409.839 97.4421 412.463C91.9033 415.086 85.9272 413.774 83.8866 409.548C81.846 405.321 84.7611 399.782 90.1542 397.158C95.693 394.534 101.669 395.846 103.71 400.073Z" fill="#D7932A"/>
<path d="M88.9886 415.378C85.9277 414.795 83.3041 412.9 81.9923 410.276C79.5144 405.029 82.721 398.324 89.2802 395.263C92.3411 393.806 95.6935 393.369 98.6087 393.952C101.815 394.68 104.293 396.429 105.459 399.053C107.937 404.3 104.73 411.005 98.1714 414.066C95.1104 415.669 91.9038 416.107 88.9886 415.378ZM97.7341 398.033C95.6935 397.595 93.2156 397.887 91.0293 399.053C86.6565 401.094 84.1786 405.466 85.7819 408.673C87.2395 411.88 92.1953 412.754 96.568 410.568C100.941 408.527 103.419 404.155 101.815 400.948C101.087 399.49 99.7747 398.47 97.7341 398.033Z" fill="#D7932A"/>
<path d="M94.0889 385.642L103.126 396.137L83.5943 412.17L73.8286 401.675L94.0889 385.642Z" fill="#D7932A"/>
<path d="M83.5956 412.608L73.3926 401.676L94.0902 385.205L103.565 396.137L83.5956 412.608ZM74.2672 401.676L83.7414 411.879L102.836 396.137L94.0902 385.934L74.2672 401.676Z" fill="#D7932A"/>
<path d="M93.6517 387.828C95.8381 391.327 93.6517 396.865 88.5502 400.072C83.4487 403.279 77.4726 403.57 75.1404 400.072C72.9541 396.574 75.2862 390.598 80.3878 387.245C85.3435 384.039 91.3196 384.33 93.6517 387.828Z" fill="#101B23"/>
<path d="M78.3471 404.445C76.1607 404.008 74.5574 402.842 73.5371 401.239C70.6219 396.72 73.2456 389.724 79.3674 385.788C85.4893 381.853 92.4856 382.29 95.255 386.809C98.1701 391.327 95.5466 397.886 89.5705 401.676C86.8011 403.425 83.5944 404.445 80.825 404.591C79.9505 404.591 79.0759 404.591 78.3471 404.445ZM89.1332 387.1C86.9469 386.663 83.8859 387.246 81.2623 388.995C76.7438 391.91 75.1404 396.72 76.598 399.198C77.4725 400.656 79.5132 400.801 80.5335 400.801C82.5741 400.801 85.0519 399.927 87.2383 398.469C91.3195 395.846 93.5059 391.473 91.7568 388.849C91.4653 387.975 90.445 387.392 89.1332 387.1Z" fill="#101B23"/>
<path d="M82.7214 395.845C82.1384 395.7 81.5553 395.408 80.9723 394.971L58.9629 372.67C57.651 371.358 57.651 369.172 58.9629 367.86C60.2747 366.548 62.461 366.548 63.7729 367.86L85.7823 390.161C87.0941 391.473 87.0941 393.659 85.7823 394.971C84.9077 395.7 83.7417 396.137 82.7214 395.845Z" fill="#101B23"/>
<path d="M69.4548 363.342C71.7869 367.277 69.0175 373.108 63.4787 376.314C57.9399 379.521 51.6723 378.792 49.3401 374.857C47.008 370.921 49.7775 365.091 55.3163 361.884C60.8551 358.678 67.2684 359.261 69.4548 363.342Z" fill="#D7932A"/>
<path d="M53.8612 379.958C51.0918 379.375 48.9055 377.918 47.5937 375.731C46.1361 373.253 46.1361 370.192 47.5937 367.131C48.9055 364.362 51.2376 361.738 54.2985 359.989C57.3594 358.24 60.7119 357.511 63.7728 357.803C67.1252 358.094 69.7488 359.698 71.2064 362.321C72.664 364.799 72.664 367.86 71.2064 370.921C69.8946 373.691 67.5625 376.314 64.5016 378.063C61.4406 379.812 58.0882 380.541 55.0273 380.25C54.59 380.104 54.2985 380.104 53.8612 379.958ZM64.21 362.03C63.9185 362.03 63.7728 361.884 63.4812 361.884C61.2949 361.593 58.6712 362.176 56.4849 363.487C54.2985 364.799 52.4037 366.694 51.3833 368.735C50.5088 370.63 50.5088 372.233 51.2376 373.691C51.9664 375.002 53.5697 375.877 55.4646 376.168C57.6509 376.46 60.2745 375.877 62.4609 374.565C64.793 373.253 66.5421 371.358 67.5624 369.318C68.437 367.423 68.437 365.82 67.7083 364.362C66.9795 363.196 65.8134 362.321 64.21 362.03Z" fill="#D7932A"/>
<path d="M61.7318 351.244L69.6028 360.573L49.0509 377.335L39.5767 367.278L61.7318 351.244Z" fill="#D7932A"/>
<path d="M59.8372 351.972C62.0236 355.907 59.3999 361.592 54.0069 364.799C48.4681 368.005 42.2005 368.005 39.8684 364.07C37.682 360.134 40.3057 353.867 45.8445 350.66C51.3833 347.599 57.6508 348.182 59.8372 351.972Z" fill="#2F3438"/>
<path d="M43.658 369.172C41.1801 368.589 39.1395 367.277 37.8277 365.237C34.9125 360.135 37.9734 352.701 44.5325 348.766C47.5934 347.017 50.9459 346.142 54.1526 346.434C57.505 346.725 60.2744 348.329 61.7319 350.807C63.1895 353.284 63.1895 356.491 61.7319 359.552C60.4201 362.321 58.088 364.945 55.0271 366.694C51.0916 369.172 47.0104 369.901 43.658 369.172ZM54.7356 351.098C54.4441 351.098 54.1526 350.952 53.8611 350.952C51.6747 350.807 49.1968 351.39 46.8647 352.701C42.2004 355.471 40.3056 360.427 41.7632 363.05C43.2208 365.674 48.3222 365.528 52.8407 363.05C55.0271 361.738 56.922 359.844 57.7966 357.949C58.2338 356.928 58.9626 355.033 57.9423 353.284C57.2135 351.827 55.7559 351.39 54.7356 351.098Z" fill="#EDB930"/>
<path d="M72.663 385.934C71.7885 385.788 70.914 385.351 70.3309 384.622C68.7276 382.873 68.7276 379.958 70.6225 378.354L76.307 373.107C78.0561 371.504 80.9713 371.504 82.5746 373.399C84.178 375.148 84.178 378.063 82.2831 379.666L76.5985 384.913C75.5782 385.934 74.1206 386.225 72.663 385.934Z" fill="#101B23"/>
<path opacity="0.3" d="M250.101 512.939C250.101 516.205 238.959 520.528 225.607 520.528C212.256 520.528 201.401 517.838 201.401 514.572C201.401 511.306 212.256 508.617 225.607 508.617C238.959 508.713 250.101 509.673 250.101 512.939Z" fill="#8C7263"/>
<path d="M254.04 458.38C254.04 460.205 243.858 461.646 231.371 461.646C218.787 461.646 208.702 460.205 208.702 458.38C208.702 456.555 218.884 455.114 231.371 455.114C243.858 455.018 254.04 456.555 254.04 458.38Z" fill="#C6C4A2"/>
<path d="M221.573 456.363C221.573 456.363 236.365 454.346 251.446 458.092C251.446 458.092 250.389 459.053 249.237 459.149C248.084 459.245 238.478 455.595 221.573 456.363Z" fill="#FBF9DC"/>
<path d="M236.649 399.594C234.92 403.821 233.575 408.527 232.711 413.811C235.016 410.353 237.706 407.471 240.684 405.07C240.203 404.493 239.627 403.533 239.051 402.668C237.898 401.227 236.841 399.594 236.649 399.594Z" fill="#89A262"/>
<path d="M263.834 369.625C263.834 369.625 259.704 371.45 254.325 375.677C253.364 376.445 255.189 382.785 254.133 383.746H254.037C253.748 383.746 252.884 382.689 252.019 381.632C251.155 380.576 250.29 379.615 250.002 379.519H249.906C246.16 383.169 242.222 388.068 239.052 394.216C238.476 395.272 240.877 401.516 241.453 404.397C242.798 403.437 244.143 402.572 245.584 401.9L256.342 403.437C258.071 399.499 259.608 395.464 260.857 391.526C260.857 391.43 260.857 391.43 260.664 391.43C259.992 391.334 257.687 391.91 255.381 392.583C253.076 393.159 250.675 393.831 250.098 393.735C250.002 393.735 249.906 393.639 249.906 393.639C250.29 392.39 262.393 386.339 262.682 384.994C263.93 379.519 264.411 374.332 263.834 369.625Z" fill="#89A262"/>
<path d="M245.583 402.092C244.142 402.764 242.701 403.629 241.453 404.589C241.549 405.166 241.549 405.646 241.453 405.838C241.356 405.838 241.068 405.55 240.78 405.07C237.802 407.375 235.113 410.353 232.808 413.811C231.463 422.167 231.463 431.965 233.576 443.299C233.576 443.299 247.408 424.377 256.437 403.533L245.583 402.092Z" fill="#788F50"/>
<path d="M198.519 374.716C198.519 374.716 201.112 390.085 202.457 394.984C202.457 394.984 204.09 406.51 209.181 419.958C213.791 432.253 220.611 446.661 225.222 461.454C225.99 461.454 226.759 461.55 227.527 461.55C224.838 439.361 217.634 398.442 198.519 374.716Z" fill="#89A262"/>
<path d="M219.747 423.704C211.582 397.385 204.666 391.43 204.666 391.43C204.666 391.43 210.429 406.318 215.52 419.766C220.131 432.061 222.244 446.661 225.51 461.55C226.086 461.55 226.567 461.55 227.143 461.646C225.702 451.176 223.397 436.96 219.747 423.704Z" fill="#788F50"/>
<path d="M232.329 461.646C235.306 428.699 237.9 367.704 221.186 333.22C221.186 333.22 219.169 414.483 225.317 461.454C227.238 461.55 229.255 461.55 231.368 461.55C231.656 461.646 232.041 461.646 232.329 461.646Z" fill="#ABC784"/>
<path d="M275.747 415.828C272.193 415.348 257.401 410.449 257.401 410.449C253.27 413.426 243.569 438.497 235.308 461.646C235.98 461.646 236.749 461.646 237.421 461.55C247.603 440.226 258.938 420.246 258.842 423.512C258.65 429.179 282.855 465.68 282.855 465.68C284.2 454.538 275.747 415.828 275.747 415.828Z" fill="#ABC784"/>
<path d="M226.376 360.404C226.376 360.404 230.122 397.577 229.642 398.634C229.161 399.691 225.511 391.526 225.511 391.526C225.511 391.526 232.331 413.619 231.659 418.998C231.178 422.936 230.026 448.583 229.45 461.646C229.642 461.646 229.834 461.646 230.026 461.646C232.043 442.339 236.173 390.757 226.376 360.404Z" fill="#788F50"/>
<path d="M258.362 421.879C258.362 421.879 257.402 416.596 257.402 413.522C257.402 413.522 244.242 434.558 236.654 461.646C236.558 461.646 253.655 424.377 258.362 421.879Z" fill="#788F50"/>
<path d="M274.692 417.173C274.692 417.173 279.111 435.711 277.574 435.327C276.037 434.847 270.946 415.54 270.37 421.303C269.793 427.066 259.131 413.619 259.131 413.619C259.131 413.619 263.358 412.178 274.692 417.173Z" fill="#788F50"/>
<path d="M208.702 458.38L213.12 513.132C213.12 513.132 217.539 518.319 230.218 518.319C242.321 518.319 249.525 512.555 249.525 512.555L253.848 458.956C252.023 460.493 242.705 461.742 231.467 461.742C218.787 461.646 208.702 460.205 208.702 458.38Z" fill="#FBF9DC"/>
<path d="M208.702 458.38L213.12 513.132C213.12 513.132 217.539 518.319 230.218 518.319C242.321 518.319 249.525 512.555 249.525 512.555L249.621 511.403C247.028 512.939 243.474 514.092 238.383 513.996C224.359 513.708 220.901 475.094 220.132 461.262C213.216 460.685 208.702 459.629 208.702 458.38Z" fill="#EFE9B2"/>
<path d="M249.139 464.912C249.139 464.912 235.114 468.85 220.418 467.025C220.514 468.274 220.61 469.522 220.802 470.867C226.95 470.867 242.607 470.195 249.139 464.912Z" fill="#E7E6B8"/>
<path d="M217.825 509.673C217.825 509.673 222.148 517.934 243.184 515.629C243.184 515.629 223.781 516.589 222.148 508.04C220.515 499.492 218.209 470.867 218.209 470.867C218.209 470.867 219.17 470.867 220.803 470.867C220.707 469.522 220.515 468.178 220.419 467.025C217.729 466.641 214.943 466.064 212.254 465.296L217.825 509.673Z" fill="#DBD697"/>
<defs>
<linearGradient id="paint0_linear" x1="116.653" y1="84.5863" x2="121.997" y2="97.7659" gradientUnits="userSpaceOnUse">
<stop stop-color="#E5BCA5"/>
<stop offset="1" stop-color="#CA9487"/>
</linearGradient>
</defs>
</svg>
