<svg width="30" height="20" viewBox="0 0 30 20" fill="none" xmlns="http://www.w3.org/2000/svg">
<rect width="29.9993" height="20" rx="2" fill="#4861B2"/>
<path d="M0 2C0 0.895431 0.89543 0 2 0H11.4734L19.8943 20H2C0.895433 20 0 19.1046 0 18V2Z" fill="#455DAA"/>
<path d="M11.9858 12.9235L12.8463 7.87695H14.2191L13.3587 12.9235H11.9858Z" fill="white"/>
<path d="M18.3464 8.00175C18.0757 7.89541 17.6503 7.78906 17.1186 7.78906C15.7554 7.78906 14.7983 8.47548 14.7983 9.45192C14.7887 10.177 15.4847 10.5831 16.0068 10.8247C16.5385 11.0761 16.7222 11.2308 16.7222 11.4532C16.7222 11.7915 16.2968 11.9462 15.9005 11.9462C15.3494 11.9462 15.0594 11.8689 14.605 11.6852L14.4116 11.5982L14.2183 12.7293C14.5373 12.8743 15.1367 12.9903 15.7554 13C17.2056 13 18.1434 12.3233 18.1531 11.2791C18.1627 10.7087 17.7953 10.264 17.0026 9.90631C16.5192 9.67428 16.2292 9.5196 16.2292 9.2779C16.2292 9.06521 16.4805 8.84285 17.0123 8.84285C17.4666 8.83318 17.7857 8.92986 18.037 9.03621L18.1627 9.09421L18.3464 8.00175Z" fill="white"/>
<path d="M21.8734 7.88574H20.8099C20.4812 7.88574 20.2298 7.97275 20.0848 8.30146L18.0449 12.9227H19.4854C19.4854 12.9227 19.7174 12.3039 19.7755 12.1686C19.9301 12.1686 21.332 12.1686 21.535 12.1686C21.5737 12.3426 21.6993 12.9227 21.6993 12.9227H22.9755L21.8734 7.88574ZM20.1815 11.1341C20.2975 10.8441 20.7326 9.72262 20.7326 9.72262C20.7229 9.73229 20.8486 9.43259 20.9163 9.23923L21.0129 9.67428C21.0129 9.67428 21.274 10.8828 21.332 11.1341H20.1815Z" fill="white"/>
<path d="M10.8348 7.87695L9.48131 11.3187L9.33629 10.6226C9.0946 9.82018 8.31151 8.94041 7.44141 8.50536L8.66922 12.9235H10.1291L12.2946 7.87695H10.8348Z" fill="white"/>
<path d="M8.23326 7.87695H6.01934L6 7.9833C7.73053 8.39901 8.87133 9.41413 9.34505 10.6226L8.86167 8.30234C8.77466 7.9833 8.53296 7.88662 8.23326 7.87695Z" fill="#F5AB00"/>
</svg>
